<svg version="1.1" id="Layer_1" xmlns="http://www.w3.org/2000/svg" xmlns:xlink="http://www.w3.org/1999/xlink" x="0px" y="0px"
	 width="100%" viewBox="0 0 500 500" enable-background="new 0 0 500 500" xml:space="preserve">
<path fill="#000000" opacity="1.000000" stroke="none" 
	d="
M228.000000,501.000000 
	C152.000015,501.000000 76.500038,501.000000 1.000041,501.000000 
	C1.000027,334.333405 1.000027,167.666779 1.000013,1.000130 
	C167.666565,1.000087 334.333130,1.000087 500.999756,1.000043 
	C500.999847,167.666534 500.999847,334.333069 500.999939,500.999817 
	C410.166656,501.000000 319.333344,501.000000 228.000000,501.000000 
M258.025085,249.945068 
	C258.025085,263.242126 258.025085,276.539185 258.025085,289.832336 
	C259.731079,289.832336 260.877258,289.832336 262.828918,289.529266 
	C262.828918,275.735931 262.828918,261.942566 262.828918,247.471893 
	C260.944946,248.096252 259.552948,248.557556 258.025085,249.945068 
M363.144592,210.039810 
	C361.878906,210.101852 360.613220,210.163910 359.284058,210.229080 
	C359.284058,221.317932 359.284058,232.039551 359.284058,243.378693 
	C361.197540,242.835419 362.678040,242.415085 364.875092,241.526398 
	C364.916168,231.874802 364.980652,222.223145 364.955475,212.571716 
	C364.953400,211.768677 364.346008,210.967209 363.144592,210.039810 
M345.216003,198.479340 
	C345.135742,212.622726 345.041656,226.766113 345.019470,240.909607 
	C345.018433,241.558380 345.663818,242.208191 346.758514,242.967102 
	C347.883118,242.649277 349.007721,242.331436 350.856018,241.549332 
	C350.905304,227.887817 350.971558,214.226303 350.960724,200.564835 
	C350.960083,199.763718 350.336823,198.963089 349.210602,198.036545 
	C348.143127,198.071854 347.075623,198.107162 345.216003,198.479340 
M292.725189,242.959671 
	C296.044281,243.399261 297.146667,241.819305 297.037384,238.645630 
	C296.883148,234.166077 296.921021,229.674240 297.043701,225.192215 
	C297.217651,218.836609 300.212402,215.701416 306.559448,214.923843 
	C306.998840,214.870010 307.403778,214.534973 308.075165,214.209229 
	C307.902252,212.825195 307.731812,211.460663 307.423615,208.993607 
	C303.530518,210.496552 300.334229,211.730499 297.120697,212.971100 
	C295.890411,210.142929 295.890411,210.142929 291.179596,210.620499 
	C291.130646,218.688248 291.008667,226.756607 291.074066,234.823425 
	C291.095703,237.492508 291.600250,240.157700 292.725189,242.959671 
M335.874786,289.974640 
	C341.277283,290.256042 339.356384,285.557770 339.777069,283.285583 
	C340.551086,279.105133 339.853851,274.673553 340.053497,270.359772 
	C340.269897,265.683624 342.915955,264.022400 348.640076,263.944000 
	C353.285614,263.880341 354.116791,266.428436 354.036163,270.289825 
	C353.901733,276.729095 353.999481,283.173218 353.999481,289.715210 
	C356.211456,289.715210 357.930206,289.715210 359.993225,289.715210 
	C359.993225,282.651642 360.352142,275.836548 359.864685,269.082550 
	C359.549347,264.713562 357.969757,261.149109 352.508942,259.596649 
	C347.036041,258.040771 343.456207,260.086456 341.082397,262.044403 
	C338.223999,261.151245 336.635468,260.654877 334.202850,260.398560 
	C334.131775,269.608887 334.040680,278.819214 334.035553,288.029572 
	C334.035217,288.633423 334.692932,289.237640 335.874786,289.974640 
M394.284424,242.761703 
	C396.068146,242.861557 397.851868,242.961411 399.984955,243.080841 
	C399.984955,238.347290 400.100433,233.886185 399.949829,229.434097 
	C399.820007,225.595596 399.387177,221.767349 399.016846,217.180038 
	C396.664246,208.634171 387.728973,207.010223 379.216827,212.803009 
	C377.232269,211.534607 375.609619,210.497482 373.268829,209.001389 
	C373.268829,221.067307 373.268829,231.809341 373.268829,242.908737 
	C374.923370,242.831299 376.293732,242.767151 377.998230,242.687363 
	C377.998230,238.669815 377.871307,235.028229 378.034119,231.399643 
	C378.195312,227.805893 378.370941,224.172272 379.042389,220.651886 
	C379.936676,215.963089 383.312897,213.632446 387.864288,214.066406 
	C392.662781,214.523911 394.054169,217.604721 394.025635,221.949509 
	C393.981964,228.599243 394.100433,235.250076 394.284424,242.761703 
M371.915100,277.056915 
	C379.243866,277.056915 386.572632,277.056915 394.350159,277.056915 
	C393.931244,274.644958 393.612854,272.811737 393.033752,270.258453 
	C392.679871,269.188873 392.278717,268.132355 391.979553,267.047699 
	C389.556061,258.260742 375.468536,257.295319 370.226654,262.326721 
	C366.042480,266.342926 364.496948,276.907684 366.852203,282.666260 
	C369.647125,289.499695 374.709381,291.654480 381.813141,291.092438 
	C387.935608,290.608032 391.675720,287.789185 393.162537,279.903534 
	C390.581451,281.332031 388.638092,281.981659 387.272034,283.252075 
	C384.397797,285.924988 382.157623,289.082367 377.255341,287.080292 
	C372.577301,285.169769 370.597473,282.111084 371.915100,277.056915 
M220.218567,230.376846 
	C220.147003,236.443924 219.985947,242.512009 220.052963,248.577545 
	C220.076080,250.671417 220.666809,252.759018 221.869263,254.963226 
	C223.132172,254.891083 224.395065,254.818954 226.195923,254.716080 
	C226.195923,249.673889 226.195923,244.973846 226.195923,241.658752 
	C231.565475,241.897446 236.773972,243.378830 241.136932,242.060989 
	C250.030930,239.374466 252.969467,230.476562 250.279907,220.531265 
	C247.966141,211.975449 242.585815,208.681396 235.489502,209.084534 
	C232.025574,209.281296 228.208557,209.835907 226.080170,214.012695 
	C216.887177,211.861145 207.711151,210.592346 198.379272,214.271652 
	C200.388382,215.702744 202.100235,216.922104 203.148270,218.834610 
	C194.808121,215.588776 186.517014,212.208023 178.108246,209.150986 
	C173.534317,207.488113 168.722839,206.490463 164.088608,204.977997 
	C160.317825,203.747314 157.753342,201.189911 158.072891,196.970001 
	C158.395569,192.709106 160.684998,189.651642 164.844589,188.163712 
	C177.113205,183.775085 185.817291,187.665619 190.734985,199.989182 
	C194.932449,199.989182 199.267471,200.215179 203.550522,199.843140 
	C204.741852,199.739639 206.887482,197.616425 206.713699,196.842072 
	C205.201050,190.101837 203.205170,183.642166 196.514999,179.774246 
	C182.313568,171.563721 167.739853,171.671539 153.195709,178.046127 
	C138.408188,184.527359 135.991089,208.998047 151.278717,216.644608 
	C157.473450,219.743073 164.265778,221.654022 170.804764,224.054749 
	C176.496933,226.144623 182.215240,228.163315 187.117523,230.384140 
	C184.229355,229.531387 181.341202,228.678650 178.560196,227.857544 
	C170.431015,244.107773 169.564209,246.379181 170.093765,260.877533 
	C170.509003,272.245789 174.130295,282.920044 182.523148,290.769653 
	C194.082489,301.580750 208.033035,304.266602 223.410629,300.237488 
	C239.864334,295.926392 247.425751,284.453033 250.096100,268.273193 
	C244.057678,268.273193 238.300217,268.273193 232.344238,268.273193 
	C231.877014,269.872223 231.442383,271.574158 230.884384,273.234680 
	C227.151855,284.341675 216.317230,289.603607 205.016632,286.074493 
	C190.876175,281.658478 186.685333,264.992737 188.314438,252.133545 
	C189.161499,245.447250 193.366989,238.961456 190.567444,231.427704 
	C193.276169,234.009811 193.188339,236.862198 192.354752,240.403244 
	C190.879669,246.669281 190.200333,253.122665 189.187958,259.497650 
	C189.818314,259.931183 190.448654,260.364716 191.079010,260.798218 
	C194.512772,258.922424 198.278290,257.469971 201.316238,255.089111 
	C209.467514,248.700989 213.588531,237.348236 207.191788,224.461075 
	C206.704727,223.479828 206.864136,222.177719 207.197067,221.723312 
	C209.270828,225.344742 211.635544,227.747269 216.590271,227.296112 
	C218.962265,227.080154 221.589508,229.667221 223.455307,230.943649 
	C222.661438,230.681351 221.867584,230.419052 220.218567,230.376846 
M316.208496,198.037048 
	C315.131500,198.079224 314.054535,198.121384 312.181488,198.488617 
	C312.123260,212.622437 312.052094,226.756256 312.048370,240.890091 
	C312.048187,241.538651 312.654205,242.187393 313.807739,242.962082 
	C317.737213,243.492645 318.114349,241.098663 318.027313,238.058792 
	C317.898285,233.554596 317.118225,228.691727 322.873077,226.483643 
	C325.822540,230.793655 329.106323,234.932083 331.632690,239.490295 
	C333.695129,243.211456 336.340302,243.447250 340.295166,242.533539 
	C335.670258,235.489868 331.245026,228.750275 326.842926,222.045944 
	C331.023163,218.132889 334.925262,214.480209 338.827362,210.827530 
	C336.057892,210.108521 333.306274,209.760223 331.808960,210.967545 
	C327.200378,214.683380 323.071472,218.994156 318.114624,222.513062 
	C318.077087,217.027573 318.137421,211.538910 317.959747,206.057968 
	C317.874176,203.419083 317.339935,200.794769 316.208496,198.037048 
M435.995636,241.097153 
	C436.000732,232.233795 436.051056,223.369995 435.965546,214.507523 
	C435.951569,213.056046 435.339142,211.610336 434.220581,210.040588 
	C432.728882,210.757660 431.237213,211.474731 429.231171,212.439056 
	C421.209290,208.671646 413.859650,208.802811 410.464539,213.128571 
	C404.952698,220.151352 403.921448,231.820206 409.128967,237.311447 
	C411.642487,239.961884 415.558075,242.156570 419.118317,242.689224 
	C422.525879,243.199020 426.295624,241.288040 429.838898,240.456833 
	C430.181610,247.008102 428.286591,250.144135 422.752380,251.654480 
	C418.797882,252.733704 414.115601,250.271057 412.270966,246.218994 
	C410.597687,246.218994 408.972443,246.218994 407.290710,246.218994 
	C409.135406,252.812561 415.059814,256.825226 422.180542,255.918182 
	C430.540771,254.853256 435.076660,250.907349 435.995636,241.097153 
M37.495155,278.939789 
	C35.940075,280.155334 34.268688,281.249451 32.850384,282.607788 
	C27.207352,288.012360 27.278797,295.907990 33.130417,300.642822 
	C38.512585,304.997803 43.583511,302.148834 48.621696,299.620911 
	C43.439068,291.343414 43.580692,276.445099 48.961193,268.247101 
	C52.109859,263.449554 55.315575,258.686096 58.624718,253.998489 
	C60.691471,251.070770 62.998642,248.312790 65.670074,244.870209 
	C66.182770,249.722549 66.942131,253.479782 66.901375,257.228271 
	C66.812904,265.365295 66.337914,273.498840 65.970146,281.631500 
	C65.876167,283.709717 64.696960,286.339111 65.573700,287.741882 
	C67.706261,291.153900 65.781670,292.698029 63.793812,294.794891 
	C62.088886,296.593323 60.786949,298.773743 58.793034,301.483429 
	C66.891495,303.041595 70.102676,297.706451 74.490799,294.932281 
	C77.184883,293.229095 77.455605,290.877045 77.331100,287.474854 
	C77.087067,280.806946 78.486603,274.089569 79.017448,267.377777 
	C79.254929,264.375153 78.593536,261.257965 79.111877,258.329346 
	C80.529900,250.317642 82.348518,242.376495 84.034912,234.413010 
	C84.250626,233.394379 84.623070,232.408966 84.922913,231.408157 
	C85.479736,231.450180 86.036560,231.492188 86.593384,231.534210 
	C86.723145,240.713547 88.025635,250.067551 86.691078,259.028809 
	C84.953888,270.693634 86.378281,281.742889 88.974640,292.900513 
	C90.222527,298.263123 98.338196,302.741791 103.224960,300.091431 
	C97.209396,295.565247 97.182289,289.366974 98.086731,282.855743 
	C99.641541,271.662231 101.809837,260.487610 102.361092,249.238449 
	C103.002213,236.155823 102.244339,223.000107 101.948334,209.879395 
	C101.876839,206.710724 101.233833,203.554962 100.803680,199.977737 
	C103.541595,199.977737 105.439293,200.305084 107.152687,199.883469 
	C108.787857,199.481094 111.441414,198.427399 111.546989,197.436279 
	C111.980812,193.363907 112.173187,189.094040 111.374870,185.113312 
	C110.660912,181.553207 107.627502,178.373856 107.250755,174.851807 
	C106.774544,170.399994 104.991669,168.023270 101.048538,166.463226 
	C94.931404,164.043091 94.978485,163.924072 97.595284,157.814682 
	C99.567276,153.210709 97.175728,149.564133 90.263596,146.635468 
	C86.118980,144.879410 83.809853,146.165344 81.878586,151.252731 
	C80.806190,154.077698 79.678009,156.881485 78.779373,159.173492 
	C79.942375,160.078827 81.777885,160.860474 81.786369,161.661484 
	C81.800110,162.958191 80.910484,164.608475 79.877945,165.506729 
	C76.966682,168.039352 72.902306,169.683365 70.900024,172.733078 
	C66.723251,179.094803 63.520012,186.104385 60.029835,192.905807 
	C56.438152,199.905075 57.168209,202.885788 62.203880,208.908234 
	C64.858887,212.083481 67.321342,215.817337 68.487869,219.713074 
	C69.412560,222.801163 68.208290,226.518036 67.992455,229.958405 
	C67.680466,234.931335 66.411026,239.334839 63.195660,243.497101 
	C56.786289,251.794022 51.018200,260.585083 44.943878,269.142700 
	C42.706936,272.294128 40.353313,275.362701 37.495155,278.939789 
M168.997879,257.388916 
	C169.937302,252.204178 168.694275,248.479019 163.145493,246.475723 
	C158.631485,244.846039 156.741592,240.806931 155.871552,236.161423 
	C155.649628,234.976440 154.055893,233.228455 152.999924,233.159683 
	C148.084930,232.839554 143.137482,233.017868 138.234909,233.017868 
	C137.843430,249.393158 151.076294,260.832672 165.476746,262.032654 
	C168.424927,262.278351 169.369492,261.017120 168.997879,257.388916 
M283.081696,236.846725 
	C283.052795,230.694305 282.927124,224.540222 283.031952,218.390076 
	C283.092896,214.813675 281.792480,212.041916 278.333405,211.251968 
	C274.701080,210.422485 270.893372,210.154388 267.151489,210.057556 
	C260.957947,209.897293 257.927429,213.008560 257.327423,220.480347 
	C259.409607,219.782898 262.322388,219.644302 262.786438,218.506775 
	C264.787872,213.600540 268.740417,213.375397 272.633026,214.196808 
	C274.588501,214.609451 276.114288,217.058044 277.834381,218.585938 
	C276.509552,220.040695 275.437561,222.246994 273.807770,222.795349 
	C270.304260,223.974060 266.478455,224.150726 262.848450,225.007950 
	C257.534760,226.262787 255.459351,229.666367 255.965134,235.788467 
	C256.294189,239.771545 259.739227,243.103226 264.508759,242.870300 
	C268.987488,242.651566 273.413635,241.357040 276.461334,240.794540 
	C279.871613,241.674805 282.297546,242.445953 284.783264,242.834198 
	C285.359131,242.924133 286.139160,241.706665 286.825256,241.090836 
	C285.679688,239.945999 284.534119,238.801163 283.081696,236.846725 
M329.471130,289.974304 
	C329.593719,289.193817 329.987152,287.805023 329.799469,287.721405 
	C324.395782,285.315521 325.926758,281.272736 326.869080,277.035645 
	C328.954285,267.659821 325.505890,261.039001 317.605408,259.288879 
	C311.049561,257.836639 302.473541,260.855255 302.078766,270.070099 
	C304.436462,268.660553 306.053436,267.631531 307.728394,266.707642 
	C310.025818,265.440399 312.370239,263.285156 314.689056,263.292297 
	C317.212250,263.300018 320.761383,263.983093 321.008179,268.076996 
	C321.228790,271.736328 318.644623,271.627075 316.176971,272.093140 
	C312.708069,272.748352 309.243530,273.551178 305.881744,274.619965 
	C300.900848,276.203461 300.282593,280.342560 301.100067,284.606628 
	C301.888611,288.720032 304.691223,291.395966 309.088593,290.906982 
	C313.387115,290.428986 317.605621,289.231232 322.055023,288.308838 
	C323.152771,290.784210 325.551331,291.802460 329.471130,289.974304 
M296.089813,276.895020 
	C298.707458,270.350250 295.578247,265.580170 290.984985,261.558594 
	C287.045898,258.109741 282.323486,258.050140 277.715485,260.107666 
	C270.797302,263.196686 267.794983,269.980011 268.974518,279.172180 
	C269.786652,285.501251 274.759369,290.793213 280.083679,290.994476 
	C291.565033,291.428497 294.522034,289.644287 296.429169,281.028473 
	C293.711945,281.056458 290.869995,280.196411 289.785309,284.196808 
	C289.466064,285.374237 287.422394,286.440521 285.963287,286.890656 
	C279.677185,288.829620 275.144012,285.054352 274.221771,276.980347 
	C281.226501,276.980347 288.192291,276.980347 296.089813,276.895020 
M417.791382,281.099213 
	C417.908051,282.873199 417.476715,284.937958 418.236816,286.370514 
	C421.418488,292.366913 437.137054,293.161774 441.135468,286.576111 
	C444.989319,280.228577 441.718536,274.531342 433.255524,272.942169 
	C430.158508,272.360626 426.952606,271.431976 424.269989,269.855652 
	C422.006378,268.525482 422.095062,266.169952 424.747345,264.703033 
	C429.391327,262.134491 432.615936,262.951477 436.092468,267.087250 
	C437.038269,268.212372 438.747742,268.695526 440.897461,269.925873 
	C441.104584,265.051056 440.006226,262.369049 436.490295,260.848206 
	C431.834686,258.834381 426.857971,257.793823 422.466858,260.431641 
	C420.056396,261.879639 417.442200,265.367157 417.503418,267.871918 
	C417.562805,270.302551 420.484070,273.417236 422.950989,274.844818 
	C426.058014,276.642822 430.024384,276.898651 433.537079,278.068817 
	C437.086090,279.251129 438.380096,283.328064 436.049530,285.397186 
	C432.564178,288.491547 424.475983,287.091736 421.985413,283.176361 
	C421.336365,282.156036 419.764740,281.722595 417.791382,281.099213 
M404.012177,277.688568 
	C403.990448,269.310211 405.258606,267.654999 412.432861,264.666077 
	C413.898956,264.055298 414.628357,261.676208 415.697327,260.112274 
	C415.164917,259.521606 414.632507,258.930969 414.100098,258.340302 
	C410.756531,259.911102 407.412964,261.481903 404.811157,262.704254 
	C403.212555,261.666168 401.558624,260.592133 399.242737,259.088257 
	C399.242737,270.156128 399.242737,279.883240 399.242737,289.737793 
	C400.869995,289.737793 402.255005,289.737793 404.012787,289.737793 
	C404.012787,285.876953 404.012787,282.255798 404.012177,277.688568 
M242.637344,199.754395 
	C242.637344,194.575043 242.637344,189.395676 242.637344,184.216324 
	C242.181458,184.107208 241.725571,183.998093 241.269699,183.888977 
	C240.681519,186.257858 240.093338,188.626724 239.571167,190.729797 
	C236.833588,190.729797 234.569870,190.729797 232.282669,190.729797 
	C232.027084,188.337753 231.800186,186.214172 231.573273,184.090607 
	C231.247772,184.128204 230.922256,184.165817 230.596756,184.203415 
	C230.596756,189.404663 230.596756,194.605927 230.596756,199.807175 
	C231.693634,198.804398 231.904968,197.752472 231.977585,196.691071 
	C232.053055,195.587845 231.994400,194.475433 231.994400,193.429810 
	C239.796036,192.558151 239.796036,192.558151 242.637344,199.754395 
M246.001129,191.523193 
	C246.001129,194.282898 246.001129,197.042587 246.001129,199.795746 
	C250.140778,199.795746 253.589157,199.795746 257.037537,199.795746 
	C257.050659,199.622604 257.063782,199.449463 257.076874,199.276321 
	C254.416504,199.079254 251.756134,198.882172 249.236206,198.695511 
	C249.236206,196.631760 249.236206,195.018967 249.236206,193.333191 
	C251.958435,193.041306 254.458694,192.773209 256.958954,192.505127 
	C256.914001,192.102051 256.869080,191.698975 256.824127,191.295898 
	C254.262024,191.097443 251.699921,190.898987 248.884781,190.680923 
	C249.069656,188.905548 249.215271,187.507233 249.342850,186.282166 
	C252.167221,186.005493 254.549057,185.772171 256.930878,185.538834 
	C256.885376,185.134644 256.839874,184.730453 256.794373,184.326263 
	C253.295837,184.326263 249.797318,184.326263 246.001129,184.326263 
	C246.001129,186.605881 246.001129,188.580933 246.001129,191.523193 
M227.879089,185.385239 
	C223.678177,182.435928 219.425079,184.440811 215.194427,184.315872 
	C215.172791,184.723480 215.151169,185.131088 215.129532,185.538696 
	C216.652283,185.802063 218.175034,186.065430 220.106689,186.399521 
	C220.106689,190.938721 220.106689,195.365173 220.106689,199.882751 
	C221.038925,199.882751 221.941727,199.935379 221.949295,199.875244 
	C222.509277,195.429428 222.998367,190.974670 223.522720,186.254211 
	C224.626068,186.161148 225.902328,186.053497 227.879089,185.385239 
z"/>
<path fill="#0C74B6" opacity="1.000000" stroke="none" 
	d="
M37.774033,278.704437 
	C40.353313,275.362701 42.706936,272.294128 44.943878,269.142700 
	C51.018200,260.585083 56.786289,251.794022 63.195660,243.497101 
	C66.411026,239.334839 67.680466,234.931335 67.992455,229.958405 
	C68.208290,226.518036 69.412560,222.801163 68.487869,219.713074 
	C67.321342,215.817337 64.858887,212.083481 62.203880,208.908234 
	C57.168209,202.885788 56.438152,199.905075 60.029835,192.905807 
	C63.520012,186.104385 66.723251,179.094803 70.900024,172.733078 
	C72.902306,169.683365 76.966682,168.039352 79.877945,165.506729 
	C80.910484,164.608475 81.800110,162.958191 81.786369,161.661484 
	C81.777885,160.860474 79.942375,160.078827 78.779373,159.173492 
	C79.678009,156.881485 80.806190,154.077698 81.878586,151.252731 
	C83.809853,146.165344 86.118980,144.879410 90.263596,146.635468 
	C97.175728,149.564133 99.567276,153.210709 97.595284,157.814682 
	C94.978485,163.924072 94.931404,164.043091 101.048538,166.463226 
	C104.991669,168.023270 106.774544,170.399994 107.250755,174.851807 
	C107.627502,178.373856 110.660912,181.553207 111.374870,185.113312 
	C112.173187,189.094040 111.980812,193.363907 111.546989,197.436279 
	C111.441414,198.427399 108.787857,199.481094 107.152687,199.883469 
	C105.439293,200.305084 103.541595,199.977737 100.803680,199.977737 
	C101.233833,203.554962 101.876839,206.710724 101.948334,209.879395 
	C102.244339,223.000107 103.002213,236.155823 102.361092,249.238449 
	C101.809837,260.487610 99.641541,271.662231 98.086731,282.855743 
	C97.182289,289.366974 97.209396,295.565247 103.224960,300.091431 
	C98.338196,302.741791 90.222527,298.263123 88.974640,292.900513 
	C86.378281,281.742889 84.953888,270.693634 86.691078,259.028809 
	C88.025635,250.067551 86.723145,240.713547 86.593384,231.534210 
	C86.036560,231.492188 85.479736,231.450180 84.922913,231.408157 
	C84.623070,232.408966 84.250626,233.394379 84.034912,234.413010 
	C82.348518,242.376495 80.529900,250.317642 79.111877,258.329346 
	C78.593536,261.257965 79.254929,264.375153 79.017448,267.377777 
	C78.486603,274.089569 77.087067,280.806946 77.331100,287.474854 
	C77.455605,290.877045 77.184883,293.229095 74.490799,294.932281 
	C70.102676,297.706451 66.891495,303.041595 58.793034,301.483429 
	C60.786949,298.773743 62.088886,296.593323 63.793812,294.794891 
	C65.781670,292.698029 67.706261,291.153900 65.573700,287.741882 
	C64.696960,286.339111 65.876167,283.709717 65.970146,281.631500 
	C66.337914,273.498840 66.812904,265.365295 66.901375,257.228271 
	C66.942131,253.479782 66.182770,249.722549 65.670074,244.870209 
	C62.998642,248.312790 60.691471,251.070770 58.624718,253.998489 
	C55.315575,258.686096 52.109859,263.449554 48.961193,268.247101 
	C43.580692,276.445099 43.439068,291.343414 48.621696,299.620911 
	C43.583511,302.148834 38.512585,304.997803 33.130417,300.642822 
	C27.278797,295.907990 27.207352,288.012360 32.850384,282.607788 
	C34.268688,281.249451 35.940075,280.155334 37.774033,278.704437 
M71.099411,200.791107 
	C71.403488,198.828125 71.707573,196.865143 72.011650,194.902161 
	C71.579277,194.844345 71.146912,194.786514 70.714539,194.728699 
	C70.147728,198.355560 65.650352,201.668594 70.558746,206.402985 
	C70.747261,204.374252 70.875526,202.993927 71.099411,200.791107 
z"/>
<path fill="#0C74B6" opacity="1.000000" stroke="none" 
	d="
M187.922012,230.213440 
	C182.215240,228.163315 176.496933,226.144623 170.804764,224.054749 
	C164.265778,221.654022 157.473450,219.743073 151.278717,216.644608 
	C135.991089,208.998047 138.408188,184.527359 153.195709,178.046127 
	C167.739853,171.671539 182.313568,171.563721 196.514999,179.774246 
	C203.205170,183.642166 205.201050,190.101837 206.713699,196.842072 
	C206.887482,197.616425 204.741852,199.739639 203.550522,199.843140 
	C199.267471,200.215179 194.932449,199.989182 190.734985,199.989182 
	C185.817291,187.665619 177.113205,183.775085 164.844589,188.163712 
	C160.684998,189.651642 158.395569,192.709106 158.072891,196.970001 
	C157.753342,201.189911 160.317825,203.747314 164.088608,204.977997 
	C168.722839,206.490463 173.534317,207.488113 178.108246,209.150986 
	C186.517014,212.208023 194.808121,215.588776 203.568069,218.485870 
	C203.987869,218.137146 204.007172,218.436859 203.702881,218.887451 
	C204.453918,219.888992 205.509232,220.439941 206.588959,220.940918 
	C206.613342,220.890945 206.723038,221.024750 206.723038,221.024750 
	C206.864136,222.177719 206.704727,223.479828 207.191788,224.461075 
	C213.588531,237.348236 209.467514,248.700989 201.316238,255.089111 
	C198.278290,257.469971 194.512772,258.922424 191.079010,260.798218 
	C190.448654,260.364716 189.818314,259.931183 189.187958,259.497650 
	C190.200333,253.122665 190.879669,246.669281 192.354752,240.403244 
	C193.188339,236.862198 193.276169,234.009811 190.269867,231.695129 
	C189.972275,231.962570 189.944717,232.072433 190.270782,231.795807 
	C189.683426,231.020309 188.770004,230.521423 187.920166,230.054077 
	C187.983765,230.085617 187.922012,230.213440 187.922012,230.213440 
z"/>
<path fill="#2BA6DD" opacity="1.000000" stroke="none" 
	d="
M189.917389,231.948624 
	C193.366989,238.961456 189.161499,245.447250 188.314438,252.133545 
	C186.685333,264.992737 190.876175,281.658478 205.016632,286.074493 
	C216.317230,289.603607 227.151855,284.341675 230.884384,273.234680 
	C231.442383,271.574158 231.877014,269.872223 232.344238,268.273193 
	C238.300217,268.273193 244.057678,268.273193 250.096100,268.273193 
	C247.425751,284.453033 239.864334,295.926392 223.410629,300.237488 
	C208.033035,304.266602 194.082489,301.580750 182.523148,290.769653 
	C174.130295,282.920044 170.509003,272.245789 170.093765,260.877533 
	C169.564209,246.379181 170.431015,244.107773 178.560196,227.857544 
	C181.341202,228.678650 184.229355,229.531387 187.519775,230.298798 
	C187.922012,230.213440 187.983765,230.085617 187.664352,230.359131 
	C188.211533,231.112579 189.078125,231.592514 189.944717,232.072449 
	C189.944717,232.072433 189.972275,231.962570 189.917389,231.948624 
z"/>
<path fill="#2DA6DD" opacity="1.000000" stroke="none" 
	d="
M204.007172,218.436859 
	C204.007172,218.436859 203.987869,218.137146 203.899994,218.139313 
	C202.100235,216.922104 200.388382,215.702744 198.379272,214.271652 
	C207.711151,210.592346 216.887177,211.861145 226.520142,214.046844 
	C226.960114,214.080978 226.895767,214.027725 227.071365,214.355072 
	C235.807571,217.763474 243.057510,222.212006 245.130203,232.275085 
	C239.225082,241.331680 232.623505,241.122147 225.714752,231.624329 
	C225.088806,231.121750 224.531845,230.997314 223.978790,230.932068 
	C223.982697,230.991257 224.101135,230.984772 224.101135,230.984772 
	C221.589508,229.667221 218.962265,227.080154 216.590271,227.296112 
	C211.635544,227.747269 209.270828,225.344742 206.960052,221.374023 
	C206.723038,221.024750 206.613342,220.890945 206.345184,220.640900 
	C205.387070,219.739532 204.697113,219.088196 204.007172,218.436859 
z"/>
<path fill="#0F75B7" opacity="1.000000" stroke="none" 
	d="
M435.843018,242.032776 
	C435.076660,250.907349 430.540771,254.853256 422.180542,255.918182 
	C415.059814,256.825226 409.135406,252.812561 407.290710,246.218994 
	C408.972443,246.218994 410.597687,246.218994 412.270966,246.218994 
	C414.115601,250.271057 418.797882,252.733704 422.752380,251.654480 
	C428.286591,250.144135 430.181610,247.008102 429.838898,240.456833 
	C426.295624,241.288040 422.525879,243.199020 419.118317,242.689224 
	C415.558075,242.156570 411.642487,239.961884 409.128967,237.311447 
	C403.921448,231.820206 404.952698,220.151352 410.464539,213.128571 
	C413.859650,208.802811 421.209290,208.671646 429.231171,212.439056 
	C431.237213,211.474731 432.728882,210.757660 434.608521,210.559235 
	C434.993378,216.518234 434.878540,221.961517 435.020569,227.398102 
	C435.148071,232.280151 435.557800,237.154846 435.843018,242.032776 
M412.271912,221.307205 
	C412.182129,224.116928 411.965942,226.929657 412.032196,229.735687 
	C412.131287,233.933395 414.304199,236.857361 418.338837,237.888870 
	C422.729919,239.011490 427.922791,236.670914 428.782898,232.674698 
	C429.607971,228.841278 429.487488,224.684875 429.090546,220.740036 
	C428.653839,216.400269 425.534302,214.190887 421.295227,214.101898 
	C416.874878,214.009125 413.787384,216.071396 412.271912,221.307205 
z"/>
<path fill="#0C74B6" opacity="1.000000" stroke="none" 
	d="
M168.997284,257.851440 
	C169.369492,261.017120 168.424927,262.278351 165.476746,262.032654 
	C151.076294,260.832672 137.843430,249.393158 138.234909,233.017868 
	C143.137482,233.017868 148.084930,232.839554 152.999924,233.159683 
	C154.055893,233.228455 155.649628,234.976440 155.871552,236.161423 
	C156.741592,240.806931 158.631485,244.846039 163.145493,246.475723 
	C168.694275,248.479019 169.937302,252.204178 168.997284,257.851440 
z"/>
<path fill="#0F75B7" opacity="1.000000" stroke="none" 
	d="
M283.235107,237.251526 
	C284.534119,238.801163 285.679688,239.945999 286.825256,241.090820 
	C286.139160,241.706665 285.359131,242.924133 284.783264,242.834198 
	C282.297546,242.445953 279.871613,241.674805 276.461334,240.794540 
	C273.413635,241.357040 268.987488,242.651566 264.508759,242.870300 
	C259.739227,243.103226 256.294189,239.771545 255.965134,235.788467 
	C255.459351,229.666367 257.534760,226.262787 262.848450,225.007950 
	C266.478455,224.150726 270.304260,223.974060 273.807770,222.795349 
	C275.437561,222.246994 276.509552,220.040695 277.834381,218.585922 
	C276.114288,217.058044 274.588501,214.609451 272.633026,214.196808 
	C268.740417,213.375397 264.787872,213.600540 262.786438,218.506775 
	C262.322388,219.644302 259.409607,219.782898 257.327423,220.480347 
	C257.927429,213.008560 260.957947,209.897293 267.151489,210.057556 
	C270.893372,210.154388 274.701080,210.422485 278.333405,211.251968 
	C281.792480,212.041916 283.092896,214.813675 283.031952,218.390076 
	C282.927124,224.540222 283.052795,230.694305 283.235107,237.251526 
M267.491150,239.004227 
	C275.296173,238.253372 278.611389,234.412766 277.341400,226.745621 
	C273.592621,227.470184 269.855133,228.261673 266.091614,228.899063 
	C262.818817,229.453354 261.251556,231.631256 262.180481,234.455902 
	C262.775757,236.266144 265.105255,237.506073 267.491150,239.004227 
z"/>
<path fill="#2FA7DE" opacity="1.000000" stroke="none" 
	d="
M329.190063,290.265320 
	C325.551331,291.802460 323.152771,290.784210 322.055023,288.308838 
	C317.605621,289.231232 313.387115,290.428986 309.088593,290.906982 
	C304.691223,291.395966 301.888611,288.720032 301.100067,284.606628 
	C300.282593,280.342560 300.900848,276.203461 305.881744,274.619965 
	C309.243530,273.551178 312.708069,272.748352 316.176971,272.093140 
	C318.644623,271.627075 321.228790,271.736328 321.008179,268.076996 
	C320.761383,263.983093 317.212250,263.300018 314.689056,263.292297 
	C312.370239,263.285156 310.025818,265.440399 307.728394,266.707642 
	C306.053436,267.631531 304.436462,268.660553 302.078766,270.070099 
	C302.473541,260.855255 311.049561,257.836639 317.605408,259.288879 
	C325.505890,261.039001 328.954285,267.659821 326.869080,277.035645 
	C325.926758,281.272736 324.395782,285.315521 329.799469,287.721405 
	C329.987152,287.805023 329.593719,289.193817 329.190063,290.265320 
M307.044281,285.513428 
	C311.274902,288.365845 315.503448,287.201782 318.751038,284.312103 
	C320.540497,282.719849 320.782532,279.388519 322.163422,275.645172 
	C317.624939,276.246490 314.766083,276.566284 311.927612,277.014923 
	C307.451752,277.722260 305.927124,279.985474 307.044281,285.513428 
z"/>
<path fill="#2FA7DE" opacity="1.000000" stroke="none" 
	d="
M295.623962,276.937683 
	C288.192291,276.980347 281.226501,276.980347 274.221771,276.980347 
	C275.144012,285.054352 279.677185,288.829620 285.963287,286.890656 
	C287.422394,286.440521 289.466064,285.374237 289.785309,284.196808 
	C290.869995,280.196411 293.711945,281.056458 296.429169,281.028473 
	C294.522034,289.644287 291.565033,291.428497 280.083679,290.994476 
	C274.759369,290.793213 269.786652,285.501251 268.974518,279.172180 
	C267.794983,269.980011 270.797302,263.196686 277.715485,260.107666 
	C282.323486,258.050140 287.045898,258.109741 290.984985,261.558594 
	C295.578247,265.580170 298.707458,270.350250 295.623962,276.937683 
M277.821625,273.003418 
	C282.096069,273.003418 286.370514,273.003418 290.606995,273.003418 
	C291.095947,267.010010 289.535645,264.575104 284.655029,263.281830 
	C281.607513,262.474304 276.506836,264.973297 275.539795,268.042236 
	C274.991302,269.782959 273.562195,272.160645 277.821625,273.003418 
z"/>
<path fill="#0C74B6" opacity="1.000000" stroke="none" 
	d="
M318.756195,223.073746 
	C323.071472,218.994156 327.200378,214.683380 331.808960,210.967545 
	C333.306274,209.760223 336.057892,210.108521 338.827362,210.827530 
	C334.925262,214.480209 331.023163,218.132889 326.842926,222.045944 
	C331.245026,228.750275 335.670258,235.489868 340.295166,242.533539 
	C336.340302,243.447250 333.695129,243.211456 331.632690,239.490295 
	C329.106323,234.932083 325.822540,230.793655 322.873077,226.483643 
	C317.118225,228.691727 317.898285,233.554596 318.027313,238.058792 
	C318.114349,241.098663 317.737213,243.492645 313.396301,242.441101 
	C312.982422,227.334610 312.979980,212.749084 312.977539,198.163559 
	C314.054535,198.121384 315.131500,198.079224 316.606293,198.558167 
	C317.004150,206.186874 316.942139,213.295685 317.081665,220.400528 
	C317.099396,221.302216 318.172211,222.183182 318.756195,223.073746 
z"/>
<path fill="#0F75B7" opacity="1.000000" stroke="none" 
	d="
M225.783737,232.002472 
	C232.623505,241.122147 239.225082,241.331680 245.421204,232.015564 
	C245.494720,227.850128 245.757767,224.084396 244.665268,220.764771 
	C243.367661,216.821945 240.801468,213.522919 235.668732,213.953079 
	C232.762741,214.196609 229.821259,214.016830 226.895767,214.027710 
	C226.895767,214.027725 226.960114,214.080978 226.929779,214.110260 
	C228.208557,209.835907 232.025574,209.281296 235.489502,209.084534 
	C242.585815,208.681396 247.966141,211.975449 250.279907,220.531265 
	C252.969467,230.476562 250.030930,239.374466 241.136932,242.060989 
	C236.773972,243.378830 231.565475,241.897446 226.195923,241.658752 
	C226.195923,244.973846 226.195923,249.673889 226.195923,254.716080 
	C224.395065,254.818954 223.132172,254.891083 221.433853,254.447876 
	C221.023529,246.007263 221.048630,238.082001 221.073715,230.156754 
	C221.867584,230.419052 222.661438,230.681351 223.778229,230.964203 
	C224.101135,230.984772 223.982697,230.991257 224.062897,231.223724 
	C224.689987,231.638306 225.236862,231.820389 225.783737,232.002472 
z"/>
<path fill="#2DA6DD" opacity="1.000000" stroke="none" 
	d="
M370.989594,277.251221 
	C370.597473,282.111084 372.577301,285.169769 377.255341,287.080292 
	C382.157623,289.082367 384.397797,285.924988 387.272034,283.252075 
	C388.638092,281.981659 390.581451,281.332031 393.162537,279.903534 
	C391.675720,287.789185 387.935608,290.608032 381.813141,291.092438 
	C374.709381,291.654480 369.647125,289.499695 366.852203,282.666260 
	C364.496948,276.907684 366.042480,266.342926 370.226654,262.326721 
	C375.468536,257.295319 389.556061,258.260742 391.979553,267.047699 
	C392.278717,268.132355 392.679871,269.188873 393.072968,271.035767 
	C393.418884,275.038788 391.852234,275.967010 388.760742,276.053864 
	C382.830505,276.220581 376.912598,276.827148 370.989594,277.251221 
M385.837677,272.966461 
	C386.327423,271.580963 387.481079,270.031708 387.187042,268.839478 
	C386.147430,264.624268 382.837433,262.713715 378.784363,263.167480 
	C373.938843,263.709961 371.497284,267.342407 371.525269,272.741455 
	C371.845093,272.816956 372.164551,272.956451 372.484802,272.958313 
	C376.640015,272.982727 380.795349,272.987579 385.837677,272.966461 
z"/>
<path fill="#2FA7DE" opacity="1.000000" stroke="none" 
	d="
M418.204102,281.059387 
	C419.764740,281.722595 421.336365,282.156036 421.985413,283.176361 
	C424.475983,287.091736 432.564178,288.491547 436.049530,285.397186 
	C438.380096,283.328064 437.086090,279.251129 433.537079,278.068817 
	C430.024384,276.898651 426.058014,276.642822 422.950989,274.844818 
	C420.484070,273.417236 417.562805,270.302551 417.503418,267.871918 
	C417.442200,265.367157 420.056396,261.879639 422.466858,260.431641 
	C426.857971,257.793823 431.834686,258.834381 436.490295,260.848206 
	C440.006226,262.369049 441.104584,265.051056 440.897461,269.925873 
	C438.747742,268.695526 437.038269,268.212372 436.092468,267.087250 
	C432.615936,262.951477 429.391327,262.134491 424.747345,264.703033 
	C422.095062,266.169952 422.006378,268.525482 424.269989,269.855652 
	C426.952606,271.431976 430.158508,272.360626 433.255524,272.942169 
	C441.718536,274.531342 444.989319,280.228577 441.135468,286.576111 
	C437.137054,293.161774 421.418488,292.366913 418.236816,286.370514 
	C417.476715,284.937958 417.908051,282.873199 418.204102,281.059387 
z"/>
<path fill="#0C74B6" opacity="1.000000" stroke="none" 
	d="
M394.150085,241.900436 
	C394.100433,235.250076 393.981964,228.599243 394.025635,221.949509 
	C394.054169,217.604721 392.662781,214.523911 387.864288,214.066406 
	C383.312897,213.632446 379.936676,215.963089 379.042389,220.651886 
	C378.370941,224.172272 378.195312,227.805893 378.034119,231.399643 
	C377.871307,235.028229 377.998230,238.669815 377.998230,242.687363 
	C376.293732,242.767151 374.923370,242.831299 373.268829,242.908737 
	C373.268829,231.809341 373.268829,221.067307 373.268829,209.001389 
	C375.609619,210.497482 377.232269,211.534607 379.216827,212.803009 
	C387.728973,207.010223 396.664246,208.634171 398.998047,218.027039 
	C398.979218,226.371597 398.979218,233.869141 398.979218,241.675400 
	C397.010529,241.767136 395.580322,241.833786 394.150085,241.900436 
z"/>
<path fill="#2BA6DD" opacity="1.000000" stroke="none" 
	d="
M335.046936,260.158508 
	C336.635468,260.654877 338.223999,261.151245 341.082397,262.044403 
	C343.456207,260.086456 347.036041,258.040771 352.508942,259.596649 
	C357.969757,261.149109 359.549347,264.713562 359.864685,269.082550 
	C360.352142,275.836548 359.993225,282.651642 359.993225,289.715210 
	C357.930206,289.715210 356.211456,289.715210 353.999481,289.715210 
	C353.999481,283.173218 353.901733,276.729095 354.036163,270.289825 
	C354.116791,266.428436 353.285614,263.880341 348.640076,263.944000 
	C342.915955,264.022400 340.269897,265.683624 340.053497,270.359772 
	C339.853851,274.673553 340.551086,279.105133 339.777069,283.285583 
	C339.356384,285.557770 341.277283,290.256042 335.458740,289.449768 
	C335.044098,279.336121 335.045532,269.747314 335.046936,260.158508 
z"/>
<path fill="#0C74B6" opacity="1.000000" stroke="none" 
	d="
M291.879211,210.175293 
	C295.890411,210.142929 295.890411,210.142929 297.120697,212.971100 
	C300.334229,211.730499 303.530518,210.496552 307.423615,208.993607 
	C307.731812,211.460663 307.902252,212.825195 308.075165,214.209229 
	C307.403778,214.534973 306.998840,214.870010 306.559448,214.923843 
	C300.212402,215.701416 297.217651,218.836609 297.043701,225.192215 
	C296.921021,229.674240 296.883148,234.166077 297.037384,238.645630 
	C297.146667,241.819305 296.044281,243.399261 292.307983,242.434433 
	C291.886902,231.331223 291.883057,220.753265 291.879211,210.175293 
z"/>
<path fill="#2DA6DD" opacity="1.000000" stroke="none" 
	d="
M404.012482,278.161621 
	C404.012787,282.255798 404.012787,285.876953 404.012787,289.737793 
	C402.255005,289.737793 400.869995,289.737793 399.242737,289.737793 
	C399.242737,279.883240 399.242737,270.156128 399.242737,259.088257 
	C401.558624,260.592133 403.212555,261.666168 404.811157,262.704254 
	C407.412964,261.481903 410.756531,259.911102 414.100098,258.340302 
	C414.632507,258.930969 415.164917,259.521606 415.697327,260.112274 
	C414.628357,261.676208 413.898956,264.055298 412.432861,264.666077 
	C405.258606,267.654999 403.990448,269.310211 404.012482,278.161621 
z"/>
<path fill="#0C74B6" opacity="1.000000" stroke="none" 
	d="
M350.132324,242.013611 
	C349.007721,242.331436 347.883118,242.649277 346.382690,242.452911 
	C346.007294,227.339981 346.007721,212.741226 346.008148,198.142487 
	C347.075623,198.107162 348.143127,198.071854 349.603882,198.557190 
	C350.042206,213.389755 350.087250,227.701675 350.132324,242.013611 
z"/>
<path fill="#0F75B7" opacity="1.000000" stroke="none" 
	d="
M364.158508,241.994766 
	C362.678040,242.415085 361.197540,242.835419 359.284058,243.378693 
	C359.284058,232.039551 359.284058,221.317932 359.284058,210.229080 
	C360.613220,210.163910 361.878906,210.101852 363.580811,210.560059 
	C364.064148,221.385132 364.111328,231.689957 364.158508,241.994766 
z"/>
<path fill="#2BA6DD" opacity="1.000000" stroke="none" 
	d="
M262.023438,289.832336 
	C260.877258,289.832336 259.731079,289.832336 258.025085,289.832336 
	C258.025085,276.539185 258.025085,263.242126 258.485260,249.502594 
	C262.479370,249.257172 261.980988,251.929840 261.988861,254.168945 
	C262.030640,266.056641 262.017517,277.944519 262.023438,289.832336 
z"/>
<path fill="#2FA7DE" opacity="1.000000" stroke="none" 
	d="
M242.198792,199.805878 
	C239.796036,192.558151 239.796036,192.558151 231.994400,193.429810 
	C231.994400,194.475433 232.053055,195.587845 231.977585,196.691071 
	C231.904968,197.752472 231.693634,198.804398 230.596756,199.807175 
	C230.596756,194.605927 230.596756,189.404663 230.596756,184.203415 
	C230.922256,184.165817 231.247772,184.128204 231.573273,184.090607 
	C231.800186,186.214172 232.027084,188.337753 232.282669,190.729797 
	C234.569870,190.729797 236.833588,190.729797 239.571167,190.729797 
	C240.093338,188.626724 240.681519,186.257858 241.269699,183.888977 
	C241.725571,183.998093 242.181458,184.107208 242.637344,184.216324 
	C242.637344,189.395676 242.637344,194.575043 242.198792,199.805878 
z"/>
<path fill="#2BA6DD" opacity="1.000000" stroke="none" 
	d="
M246.001129,191.039581 
	C246.001129,188.580933 246.001129,186.605881 246.001129,184.326263 
	C249.797318,184.326263 253.295837,184.326263 256.794373,184.326263 
	C256.839874,184.730453 256.885376,185.134644 256.930878,185.538834 
	C254.549057,185.772171 252.167221,186.005493 249.342850,186.282166 
	C249.215271,187.507233 249.069656,188.905548 248.884781,190.680923 
	C251.699921,190.898987 254.262024,191.097443 256.824127,191.295898 
	C256.869080,191.698975 256.914001,192.102051 256.958954,192.505127 
	C254.458694,192.773209 251.958435,193.041306 249.236206,193.333191 
	C249.236206,195.018967 249.236206,196.631760 249.236206,198.695511 
	C251.756134,198.882172 254.416504,199.079254 257.076874,199.276321 
	C257.063782,199.449463 257.050659,199.622604 257.037537,199.795746 
	C253.589157,199.795746 250.140778,199.795746 246.001129,199.795746 
	C246.001129,197.042587 246.001129,194.282898 246.001129,191.039581 
z"/>
<path fill="#2FA7DE" opacity="1.000000" stroke="none" 
	d="
M227.528839,185.665527 
	C225.902328,186.053497 224.626068,186.161148 223.522720,186.254211 
	C222.998367,190.974670 222.509277,195.429428 221.949295,199.875244 
	C221.941727,199.935379 221.038925,199.882751 220.106689,199.882751 
	C220.106689,195.365173 220.106689,190.938721 220.106689,186.399521 
	C218.175034,186.065430 216.652283,185.802063 215.129532,185.538696 
	C215.151169,185.131088 215.172791,184.723480 215.194427,184.315872 
	C219.425079,184.440811 223.678177,182.435928 227.528839,185.665527 
z"/>
<path fill="#55B7E4" opacity="1.000000" stroke="none" 
	d="
M262.426178,289.680786 
	C262.017517,277.944519 262.030640,266.056641 261.988861,254.168945 
	C261.980988,251.929840 262.479370,249.257172 258.553223,249.039490 
	C259.552948,248.557556 260.944946,248.096252 262.828918,247.471893 
	C262.828918,261.942566 262.828918,275.735931 262.426178,289.680786 
z"/>
<path fill="#5BA1CE" opacity="1.000000" stroke="none" 
	d="
M312.579529,198.326080 
	C312.979980,212.749084 312.982422,227.334610 312.981384,242.378082 
	C312.654205,242.187393 312.048187,241.538651 312.048370,240.890091 
	C312.052094,226.756256 312.123260,212.622437 312.579529,198.326080 
z"/>
<path fill="#0F75B7" opacity="1.000000" stroke="none" 
	d="
M345.612061,198.310913 
	C346.007721,212.741226 346.007294,227.339981 346.007507,242.398132 
	C345.663818,242.208191 345.018433,241.558380 345.019470,240.909607 
	C345.041656,226.766113 345.135742,212.622726 345.612061,198.310913 
z"/>
<path fill="#7CB3D7" opacity="1.000000" stroke="none" 
	d="
M350.494171,241.781464 
	C350.087250,227.701675 350.042206,213.389755 350.000214,198.620026 
	C350.336823,198.963089 350.960083,199.763718 350.960724,200.564835 
	C350.971558,214.226303 350.905304,227.887817 350.494171,241.781464 
z"/>
<path fill="#5BA1CE" opacity="1.000000" stroke="none" 
	d="
M291.529419,210.397888 
	C291.883057,220.753265 291.886902,231.331223 291.887360,242.366928 
	C291.600250,240.157700 291.095703,237.492508 291.074066,234.823425 
	C291.008667,226.756607 291.130646,218.688248 291.529419,210.397888 
z"/>
<path fill="#5BA1CE" opacity="1.000000" stroke="none" 
	d="
M435.919312,241.564972 
	C435.557800,237.154846 435.148071,232.280151 435.020569,227.398102 
	C434.878540,221.961517 434.993378,216.518234 434.999878,210.619919 
	C435.339142,211.610336 435.951569,213.056046 435.965546,214.507523 
	C436.051056,223.369995 436.000732,232.233795 435.919312,241.564972 
z"/>
<path fill="#91C0DE" opacity="1.000000" stroke="none" 
	d="
M364.516785,241.760590 
	C364.111328,231.689957 364.064148,221.385132 364.018433,210.622665 
	C364.346008,210.967209 364.953400,211.768677 364.955475,212.571716 
	C364.980652,222.223145 364.916168,231.874802 364.516785,241.760590 
z"/>
<path fill="#55B7E4" opacity="1.000000" stroke="none" 
	d="
M334.624878,260.278534 
	C335.045532,269.747314 335.044098,279.336121 335.043640,289.383301 
	C334.692932,289.237640 334.035217,288.633423 334.035553,288.029572 
	C334.040680,278.819214 334.131775,269.608887 334.624878,260.278534 
z"/>
<path fill="#7CB3D7" opacity="1.000000" stroke="none" 
	d="
M394.217255,242.331070 
	C395.580322,241.833786 397.010529,241.767136 398.979218,241.675400 
	C398.979218,233.869141 398.979218,226.371597 399.033752,218.404312 
	C399.387177,221.767349 399.820007,225.595596 399.949829,229.434097 
	C400.100433,233.886185 399.984955,238.347290 399.984955,243.080841 
	C397.851868,242.961411 396.068146,242.861557 394.217255,242.331070 
z"/>
<path fill="#91C0DE" opacity="1.000000" stroke="none" 
	d="
M371.452332,277.154053 
	C376.912598,276.827148 382.830505,276.220581 388.760742,276.053864 
	C391.852234,275.967010 393.418884,275.038788 393.203308,271.395813 
	C393.612854,272.811737 393.931244,274.644958 394.350159,277.056915 
	C386.572632,277.056915 379.243866,277.056915 371.452332,277.154053 
z"/>
<path fill="#7CB3D7" opacity="1.000000" stroke="none" 
	d="
M318.435425,222.793396 
	C318.172211,222.183182 317.099396,221.302216 317.081665,220.400528 
	C316.942139,213.295685 317.004150,206.186874 317.006500,198.621567 
	C317.339935,200.794769 317.874176,203.419083 317.959747,206.057968 
	C318.137421,211.538910 318.077087,217.027573 318.435425,222.793396 
z"/>
<path fill="#91C0DE" opacity="1.000000" stroke="none" 
	d="
M220.646149,230.266800 
	C221.048630,238.082001 221.023529,246.007263 220.998352,254.390991 
	C220.666809,252.759018 220.076080,250.671417 220.052963,248.577545 
	C219.985947,242.512009 220.147003,236.443924 220.646149,230.266800 
z"/>
<path fill="#000000" opacity="1.000000" stroke="none" 
	d="
M71.051598,201.202362 
	C70.875526,202.993927 70.747261,204.374252 70.558746,206.402985 
	C65.650352,201.668594 70.147728,198.355560 70.714539,194.728699 
	C71.146912,194.786514 71.579277,194.844345 72.011650,194.902161 
	C71.707573,196.865143 71.403488,198.828125 71.051598,201.202362 
z"/>
<path fill="#000000" opacity="1.000000" stroke="none" 
	d="
M203.702881,218.887451 
	C204.697113,219.088196 205.387070,219.739532 206.320786,220.690887 
	C205.509232,220.439941 204.453918,219.888992 203.702881,218.887451 
z"/>
<path fill="#000000" opacity="1.000000" stroke="none" 
	d="
M190.270782,231.795807 
	C189.078125,231.592514 188.211533,231.112579 187.600769,230.327591 
	C188.770004,230.521423 189.683426,231.020309 190.270782,231.795807 
z"/>
<path fill="#000000" opacity="1.000000" stroke="none" 
	d="
M227.071365,214.355072 
	C229.821259,214.016830 232.762741,214.196609 235.668732,213.953079 
	C240.801468,213.522919 243.367661,216.821945 244.665268,220.764771 
	C245.757767,224.084396 245.494720,227.850128 245.540741,231.677917 
	C243.057510,222.212006 235.807571,217.763474 227.071365,214.355072 
z"/>
<path fill="#000000" opacity="1.000000" stroke="none" 
	d="
M225.714752,231.624329 
	C225.236862,231.820389 224.689987,231.638306 224.059006,231.164551 
	C224.531845,230.997314 225.088806,231.121750 225.714752,231.624329 
z"/>
<path fill="#000000" opacity="1.000000" stroke="none" 
	d="
M412.526428,220.971344 
	C413.787384,216.071396 416.874878,214.009125 421.295227,214.101898 
	C425.534302,214.190887 428.653839,216.400269 429.090546,220.740036 
	C429.487488,224.684875 429.607971,228.841278 428.782898,232.674698 
	C427.922791,236.670914 422.729919,239.011490 418.338837,237.888870 
	C414.304199,236.857361 412.131287,233.933395 412.032196,229.735687 
	C411.965942,226.929657 412.182129,224.116928 412.526428,220.971344 
z"/>
<path fill="#000000" opacity="1.000000" stroke="none" 
	d="
M267.074249,239.002945 
	C265.105255,237.506073 262.775757,236.266144 262.180481,234.455902 
	C261.251556,231.631256 262.818817,229.453354 266.091614,228.899063 
	C269.855133,228.261673 273.592621,227.470184 277.341400,226.745621 
	C278.611389,234.412766 275.296173,238.253372 267.074249,239.002945 
z"/>
<path fill="#000000" opacity="1.000000" stroke="none" 
	d="
M306.755920,285.227875 
	C305.927124,279.985474 307.451752,277.722260 311.927612,277.014923 
	C314.766083,276.566284 317.624939,276.246490 322.163422,275.645172 
	C320.782532,279.388519 320.540497,282.719849 318.751038,284.312103 
	C315.503448,287.201782 311.274902,288.365845 306.755920,285.227875 
z"/>
<path fill="#000000" opacity="1.000000" stroke="none" 
	d="
M277.363342,272.998901 
	C273.562195,272.160645 274.991302,269.782959 275.539795,268.042236 
	C276.506836,264.973297 281.607513,262.474304 284.655029,263.281830 
	C289.535645,264.575104 291.095947,267.010010 290.606995,273.003418 
	C286.370514,273.003418 282.096069,273.003418 277.363342,272.998901 
z"/>
<path fill="#000000" opacity="1.000000" stroke="none" 
	d="
M385.394165,272.981903 
	C380.795349,272.987579 376.640015,272.982727 372.484802,272.958313 
	C372.164551,272.956451 371.845093,272.816956 371.526154,272.737732 
	C371.497284,267.342407 373.938843,263.709961 378.784363,263.167480 
	C382.837433,262.713715 386.147430,264.624268 387.187042,268.839478 
	C387.481079,270.031708 386.327423,271.580963 385.394165,272.981903 
z"/>
</svg>