<svg version="1.1" id="Layer_1" xmlns="http://www.w3.org/2000/svg" xmlns:xlink="http://www.w3.org/1999/xlink" x="0px" y="0px"
	 width="100%" viewBox="0 0 500 500" enable-background="new 0 0 500 500" xml:space="preserve">
<path fill="#FFFFFF" opacity="1.000000" stroke="none" 
	d="
M227.000000,501.000000 
	C151.333359,501.000000 76.166702,501.000000 1.000040,501.000000 
	C1.000027,334.333405 1.000027,167.666779 1.000013,1.000130 
	C167.666565,1.000087 334.333130,1.000087 500.999756,1.000043 
	C500.999847,167.666534 500.999847,334.333069 500.999939,500.999817 
	C409.833344,501.000000 318.666656,501.000000 227.000000,501.000000 
M222.219131,230.256470 
	C221.661057,230.656204 220.621246,231.049942 220.616180,231.456558 
	C220.519653,239.216888 220.544907,246.978745 220.544907,254.813019 
	C222.613831,254.813019 224.057968,254.813019 226.022141,254.813019 
	C226.022141,249.599731 226.022141,244.562897 226.022141,239.749802 
	C229.284729,241.006958 232.074951,242.716187 235.036377,243.098175 
	C242.405472,244.048660 248.946106,238.920212 250.722855,231.431976 
	C252.907089,222.226273 249.281265,212.341583 242.074417,210.270981 
	C238.389313,209.212189 234.056473,210.143509 230.069870,210.621384 
	C229.271225,210.717102 228.714691,212.832611 227.234146,214.131165 
	C217.973831,211.497925 208.746307,210.757339 199.323898,213.872864 
	C199.653305,214.757614 199.664413,214.962845 199.770309,215.043259 
	C200.430023,215.544098 201.110947,216.016983 200.997925,217.295258 
	C194.021286,214.653076 187.096710,211.860443 180.049698,209.421570 
	C175.347916,207.794357 170.422165,206.822754 165.688583,205.276291 
	C161.572433,203.931549 157.936188,201.837692 158.111572,196.648392 
	C158.267166,192.045105 161.753098,188.412430 167.004242,187.198700 
	C179.035934,184.417740 186.243759,188.124893 190.570648,199.300949 
	C195.869751,199.300949 201.156738,199.300949 206.887039,199.300949 
	C206.230988,192.565521 204.877075,186.443283 199.706345,182.052322 
	C187.548538,171.727936 173.516907,171.427109 159.182526,175.656830 
	C147.201340,179.192154 141.214996,187.406754 141.107101,198.534943 
	C141.004547,209.114334 146.157806,215.729004 158.442230,220.014191 
	C165.178757,222.364105 172.117203,224.135147 178.996231,226.794800 
	C179.006821,227.213577 179.017395,227.632370 178.669708,228.626144 
	C175.915009,235.842163 171.575943,242.867203 170.679123,250.307159 
	C166.743195,282.959351 188.021027,306.283112 219.832626,301.089172 
	C236.846710,298.311279 248.468918,285.377441 249.460266,267.739563 
	C243.759674,267.739563 238.077286,267.739563 232.388412,267.739563 
	C232.075058,269.043640 231.880005,270.016602 231.606888,270.967102 
	C228.680908,281.149902 223.255310,286.127014 214.232422,286.925201 
	C204.423309,287.792938 195.952682,283.350677 191.874664,274.373077 
	C189.991959,270.228394 189.377045,265.507812 188.717514,260.980133 
	C189.133865,260.690887 189.550217,260.401642 190.747482,260.169739 
	C206.609970,255.446991 213.652969,242.362473 209.726685,226.207764 
	C211.654404,226.454773 213.662689,226.442703 215.490494,227.011063 
	C218.066055,227.811951 220.507889,229.042816 222.219131,230.256470 
M61.422569,249.961670 
	C62.762962,248.155975 64.103355,246.350296 65.680717,244.225372 
	C66.157074,248.544510 66.972107,252.272934 66.898460,255.983749 
	C66.710922,265.434021 65.600266,274.893250 65.901344,284.315582 
	C66.077011,289.813324 66.206490,294.482056 61.087841,297.839630 
	C60.440956,298.263947 60.042381,300.451874 60.422028,300.775787 
	C61.287086,301.513855 63.146919,302.283752 63.829945,301.843140 
	C68.271858,298.977600 72.526787,295.818329 76.779640,292.669708 
	C77.208427,292.352264 77.377373,291.469543 77.394112,290.841919 
	C77.648651,281.297760 77.833817,271.751740 78.105309,262.208130 
	C78.142258,260.909424 78.526573,259.614807 78.802834,258.329651 
	C80.505692,250.407913 82.226685,242.490097 83.933838,234.569290 
	C84.235252,233.170776 84.499794,231.764328 84.781364,230.361542 
	C85.318916,230.434341 85.856476,230.507156 86.394028,230.579956 
	C86.394028,241.851578 86.165932,253.129333 86.468315,264.392853 
	C86.698090,272.951569 87.409927,281.511780 88.276169,290.033844 
	C88.830643,295.488739 93.097939,298.522247 97.253853,301.271515 
	C98.202644,301.899170 100.046356,301.620636 101.267540,301.178040 
	C101.782150,300.991516 102.256294,298.678436 101.892899,298.382294 
	C94.909912,292.691345 98.291740,285.378235 98.749924,278.614563 
	C99.653030,265.283112 101.020706,251.979538 101.727432,238.639587 
	C102.200905,229.702347 101.966393,220.721024 101.847130,211.762100 
	C101.797028,207.998505 101.226540,204.241821 100.897133,200.532700 
	C112.400345,198.476868 112.530396,198.480545 112.766045,190.160736 
	C112.822983,188.150436 111.869072,186.043884 111.097076,184.093597 
	C109.938095,181.165680 107.661957,178.410934 107.408318,175.449997 
	C106.888817,169.385452 103.569725,166.762207 98.274246,165.181534 
	C97.186188,164.856750 96.171196,162.691849 96.023102,161.280609 
	C95.886314,159.977005 97.014374,158.565689 97.487007,157.168564 
	C99.107811,152.377380 96.687057,148.837112 90.420441,146.767868 
	C85.965500,145.296844 82.997955,147.091705 81.522911,152.015945 
	C80.777008,154.506042 79.839500,156.938736 79.093582,159.094101 
	C80.190262,159.956955 82.140854,160.918137 82.035721,161.520477 
	C81.761223,163.093201 80.956490,165.210968 79.708626,165.867767 
	C73.756981,169.000366 68.978249,173.337753 66.035400,179.275406 
	C63.095501,185.207138 60.387981,191.348129 58.531425,197.676910 
	C57.776787,200.249390 58.501984,204.792068 60.328259,206.326675 
	C69.529991,214.058929 69.231422,223.893250 67.569977,234.133148 
	C67.137222,236.800339 66.016342,239.570847 64.496216,241.807816 
	C59.163677,249.654984 53.415947,257.218903 48.023853,265.027069 
	C43.229546,271.969635 39.019764,279.297028 31.644875,284.113068 
	C30.078671,285.135834 28.959986,287.904114 28.875013,289.920410 
	C28.681376,294.515198 29.654837,298.962677 34.393288,301.338715 
	C39.516064,303.907501 44.017033,302.032715 48.105320,299.668457 
	C43.576050,287.011047 42.166321,275.102112 51.401806,263.939484 
	C54.895077,259.717285 57.823772,255.028015 61.422569,249.961670 
M424.681000,255.247345 
	C430.187469,254.424667 434.630432,251.462524 434.908844,245.934570 
	C435.506104,234.076111 435.091980,222.166718 435.091980,209.197067 
	C432.878387,210.422287 431.086456,211.414124 429.179077,212.469864 
	C422.655823,207.840698 415.492706,208.044754 410.706146,213.270233 
	C404.918671,219.588394 404.324921,231.445175 409.478943,237.775131 
	C414.396210,243.814255 421.560760,244.339951 430.130432,239.128174 
	C430.399811,243.871231 430.409882,248.727554 425.379669,250.581268 
	C421.598724,251.974609 417.296082,252.155746 413.781738,248.618301 
	C412.283447,247.110168 409.982666,246.399338 406.909546,244.695984 
	C409.361481,253.662155 413.612213,255.946976 424.681000,255.247345 
M142.238388,248.155090 
	C148.455948,257.477966 157.452499,261.465851 168.491119,262.162506 
	C168.659958,258.311493 168.990250,254.838593 168.862320,251.382660 
	C168.820404,250.250275 167.801132,248.443481 166.867233,248.167175 
	C159.444122,245.970947 156.375107,240.557785 155.541504,233.346619 
	C149.637115,233.346619 143.921967,233.346619 137.042252,233.346619 
	C138.817566,238.509201 140.363068,243.003448 142.238388,248.155090 
M330.705658,227.617828 
	C329.445435,225.701614 328.185211,223.785385 326.868042,221.782547 
	C331.008179,217.931213 334.856903,214.350983 339.253540,210.261078 
	C328.022125,208.385834 325.616821,219.667191 317.578705,222.828735 
	C317.578705,214.396149 317.578705,206.208374 317.578705,197.652954 
	C315.372803,197.813629 313.822357,197.926559 312.544800,198.019623 
	C312.544800,213.149139 312.544800,227.730423 312.544800,242.639008 
	C314.369141,242.532410 315.792175,242.449280 317.691711,242.338287 
	C317.691711,239.065460 317.176025,235.980606 317.840759,233.175491 
	C318.470428,230.518402 320.338013,228.154663 322.089935,224.854172 
	C325.713074,230.401230 328.656281,234.449219 331.094727,238.781296 
	C333.151917,242.436066 335.783752,243.504242 340.183868,242.016815 
	C337.068024,237.295105 334.081696,232.769714 330.705658,227.617828 
M285.796509,238.350006 
	C284.856445,236.893799 283.242615,235.497131 283.107635,233.969788 
	C282.758331,230.017029 283.078583,226.006714 283.100006,222.019226 
	C283.154083,211.947433 278.533386,207.956482 268.457489,209.350403 
	C260.958527,210.387817 258.218384,213.000366 257.570587,219.837860 
	C260.030701,220.377365 262.015350,221.017548 263.375702,217.512726 
	C264.931030,213.505539 271.983429,212.015442 275.411133,214.778961 
	C276.696808,215.815521 277.650574,218.206741 277.455597,219.823517 
	C277.312561,221.009491 275.197144,222.456909 273.703156,222.881607 
	C270.055695,223.918488 266.167236,224.127563 262.544006,225.225098 
	C257.551056,226.737503 255.305389,230.617569 256.075500,235.582886 
	C256.835632,240.484100 260.235168,243.035126 264.732147,242.887726 
	C269.137421,242.743317 273.498566,241.252625 277.454224,240.440094 
	C279.707855,241.215912 282.043884,242.198425 284.478607,242.657547 
	C284.826294,242.723114 285.651794,240.254913 285.796509,238.350006 
M325.757874,264.079803 
	C322.115662,259.298370 316.395416,257.744598 309.669617,259.676117 
	C305.024658,261.010071 302.421631,263.933746 301.922791,270.247528 
	C304.297729,269.058868 306.585358,268.686157 307.155212,267.493042 
	C309.443329,262.702148 313.414337,262.811646 317.317932,263.875580 
	C318.883575,264.302277 320.821625,266.681061 320.888123,268.243774 
	C320.941681,269.502350 318.648193,271.504028 317.017792,272.053406 
	C313.903931,273.102570 310.433746,273.059631 307.268921,273.999969 
	C302.190704,275.508759 300.107574,279.261658 300.997559,284.377441 
	C301.760376,288.762054 305.605835,291.828644 310.530151,291.132141 
	C314.185425,290.615112 317.697083,289.082672 320.848358,288.130707 
	C323.009308,289.019379 325.177429,290.033264 327.454224,290.638916 
	C327.658966,290.693359 328.565735,288.108704 329.146515,286.749664 
	C324.885010,285.262451 326.385132,281.761902 326.331299,278.776825 
	C326.247589,274.135406 326.100006,269.495178 325.757874,264.079803 
M377.603699,276.684967 
	C382.886749,276.684967 388.169769,276.684967 393.386200,276.684967 
	C394.162109,266.923706 389.441559,259.916718 381.965210,259.054138 
	C373.441681,258.070770 367.039368,263.345367 365.871216,272.313385 
	C364.559235,282.385590 369.037170,290.055145 376.898590,291.200439 
	C385.824280,292.500793 391.427643,288.985321 393.024414,279.833801 
	C390.687744,281.074890 388.400208,281.515747 387.631073,282.839081 
	C385.004883,287.357727 381.213196,287.894104 376.914246,286.539368 
	C372.547180,285.163239 370.876068,281.767700 371.135223,276.684570 
	C373.075775,276.684570 374.859192,276.684570 377.603699,276.684967 
M288.177216,286.062012 
	C281.201233,289.473053 273.224915,284.433594 274.835480,276.482849 
	C282.060638,276.482849 289.427917,276.482849 296.724121,276.482849 
	C297.362640,266.471283 292.762634,259.817688 285.138641,259.041840 
	C276.760254,258.189178 270.232025,263.677155 269.121094,272.507111 
	C267.885864,282.324585 272.655792,290.212250 280.452576,291.245087 
	C289.420105,292.432983 294.908112,288.910461 296.191559,281.145111 
	C291.381134,278.759369 291.052521,283.751526 288.177216,286.062012 
M391.408661,214.878052 
	C392.307922,217.423935 393.836639,219.934235 393.983032,222.522705 
	C394.354523,229.091003 394.106445,235.694305 394.106445,242.705276 
	C396.439758,242.507996 397.987671,242.377121 399.454681,242.253098 
	C399.454681,234.058609 399.845398,226.386566 399.340088,218.773987 
	C398.874237,211.755569 394.299377,208.235016 387.413025,209.349670 
	C384.163055,209.875732 381.141174,211.811203 379.568848,212.463669 
	C376.997620,211.227768 375.233246,210.379684 373.074860,209.342209 
	C373.074860,221.134201 373.074860,231.710419 373.074860,242.591721 
	C374.859802,242.499496 376.276001,242.426315 378.079895,242.333115 
	C378.079895,236.208725 377.949707,230.406738 378.110687,224.612823 
	C378.346344,216.131409 382.237183,213.070114 391.408661,214.878052 
M431.859650,277.397797 
	C437.249176,279.195770 438.975983,282.509430 435.977173,285.299042 
	C432.680939,288.365326 424.697906,287.522095 422.808411,283.444366 
	C421.358032,280.314362 419.703552,280.303345 417.145599,281.147919 
	C418.328125,289.660126 426.857086,293.587524 436.094421,290.224030 
	C440.295441,288.694336 442.839691,285.789001 442.740051,281.318481 
	C442.647827,277.182739 440.030151,274.712280 436.082062,273.653870 
	C432.719147,272.752380 429.269897,272.074615 426.037994,270.831909 
	C424.763916,270.342041 423.664642,268.718140 423.098877,267.355988 
	C422.821533,266.688324 423.696869,265.120728 424.479340,264.508667 
	C427.470673,262.168701 433.189819,263.406830 435.723389,266.358246 
	C436.908447,267.738770 438.841980,268.476776 441.301575,270.064606 
	C440.391327,260.329102 429.551392,255.821136 421.920898,260.837006 
	C419.736023,262.273254 417.928772,265.875824 417.903839,268.503601 
	C417.883820,270.615265 420.418976,273.398834 422.544586,274.712219 
	C424.971008,276.211487 428.199524,276.412689 431.859650,277.397797 
M334.138000,266.683929 
	C334.138000,274.426147 334.138000,282.168365 334.138000,290.009979 
	C336.224182,290.009979 337.623596,290.009979 339.590363,290.009979 
	C339.590363,283.738373 339.328949,277.769501 339.663849,271.834290 
	C339.998993,265.895172 343.265442,263.174316 348.611847,263.475037 
	C354.351990,263.797943 354.409760,267.924561 354.436035,272.052643 
	C354.473846,277.989624 354.445679,283.927032 354.445679,290.373108 
	C356.623169,290.200958 358.143463,290.080780 359.809692,289.949036 
	C359.809692,283.247711 359.814117,277.100311 359.804474,270.952881 
	C359.803192,270.122589 359.781372,269.286560 359.684479,268.463135 
	C358.702454,260.118073 350.879211,256.229828 343.562225,260.491852 
	C342.153351,261.312469 340.909943,262.417175 339.230194,263.656403 
	C339.330017,259.819611 337.798096,258.608826 334.138794,260.490845 
	C334.138794,262.153778 334.138794,263.951172 334.138000,266.683929 
M346.649231,242.608612 
	C349.594086,243.100540 350.870392,242.103424 350.753937,238.881470 
	C350.537628,232.896423 350.692505,226.897964 350.692596,220.905090 
	C350.692749,213.311798 350.692627,205.718521 350.692627,198.001465 
	C348.477844,198.001465 346.895599,198.001465 345.035217,198.001465 
	C345.035217,212.415222 345.025940,226.541641 345.068542,240.667892 
	C345.070282,241.244766 345.560516,241.820160 346.649231,242.608612 
M291.104279,221.522964 
	C291.104279,228.427017 291.104279,235.331085 291.104279,242.665848 
	C293.358154,242.521896 294.902954,242.423233 296.740906,242.305862 
	C296.740906,237.692093 296.715576,233.563965 296.745850,229.436234 
	C296.823944,218.788101 298.148163,217.016357 308.354218,214.084137 
	C308.281525,212.566483 308.205627,210.981522 308.069031,208.129761 
	C303.804840,210.215179 300.292725,211.932800 296.554169,213.761185 
	C296.991791,209.304993 294.492950,209.468796 291.104370,210.423782 
	C291.104370,213.934479 291.104370,217.233444 291.104279,221.522964 
M402.888550,260.044495 
	C401.661621,260.044495 400.434662,260.044495 399.247864,260.044495 
	C399.247864,270.354980 399.247864,280.095642 399.247864,290.197815 
	C400.972382,290.029968 402.349304,289.895935 403.971680,289.738007 
	C403.971680,285.704407 403.958710,282.063507 403.974152,278.422760 
	C404.018005,268.075226 405.000702,266.723755 414.747070,263.586639 
	C414.747070,262.167725 414.747070,260.735413 414.747070,258.055603 
	C410.696503,260.015137 407.332153,261.642700 404.013855,263.247986 
	C403.883118,262.484406 403.715881,261.507416 402.888550,260.044495 
M259.476410,290.120789 
	C262.046509,290.521057 262.992126,289.492859 262.962067,286.841095 
	C262.820740,274.378204 262.837646,261.913513 262.774200,249.449585 
	C262.772736,249.164093 262.489532,248.880051 262.143158,248.230392 
	C260.932159,248.288010 259.556366,248.353485 257.799194,248.437088 
	C257.799194,259.942078 257.752594,271.053528 257.833832,282.164032 
	C257.852753,284.753021 258.306366,287.338806 259.476410,290.120789 
M359.020782,212.797272 
	C359.020782,222.565948 359.020782,232.334610 359.020782,242.544724 
	C361.083740,242.437897 362.618774,242.358398 364.291016,242.271805 
	C364.291016,231.350266 364.291016,220.919891 364.291016,209.181671 
	C362.110138,210.296021 360.570160,211.082901 359.020782,212.797272 
M255.066452,200.495346 
	C256.039825,200.182693 257.013214,199.870041 257.986572,199.557373 
	C257.902252,199.147156 257.817932,198.736923 257.733612,198.326691 
	C254.868820,198.132294 252.004013,197.937897 248.805954,197.720886 
	C249.010284,195.887985 249.164307,194.506470 249.310684,193.193512 
	C252.269211,192.994064 254.754837,192.826492 257.469635,192.643478 
	C255.984482,188.168121 248.208710,193.606903 249.115952,186.271194 
	C252.293671,186.012192 255.080719,185.785019 257.867767,185.557846 
	C257.847046,185.082855 257.826355,184.607849 257.805634,184.132843 
	C254.103745,184.132843 250.401855,184.132843 246.197769,184.132843 
	C246.197769,187.711349 246.505539,191.195572 246.124390,194.602722 
	C245.576080,199.504105 247.498199,201.296860 252.221237,200.515289 
	C252.867004,200.408432 253.545517,200.499344 255.066452,200.495346 
M242.945236,197.729965 
	C242.945236,193.081818 242.945236,188.433685 242.945236,183.785538 
	C238.000946,191.021942 238.000946,191.021942 232.361877,190.047363 
	C232.120605,188.001099 231.871841,185.891220 231.623077,183.781342 
	C231.256622,183.834763 230.890167,183.888199 230.523712,183.941620 
	C230.523712,189.324463 230.523712,194.707306 230.523712,200.090149 
	C230.932571,200.107803 231.341415,200.125458 231.750275,200.143097 
	C231.932205,197.808868 232.114136,195.474640 232.295593,193.146576 
	C235.135727,193.146576 237.656143,193.146576 240.312927,193.146576 
	C240.440308,195.411362 240.542496,197.228241 240.644684,199.045105 
	C241.409348,198.872971 242.174011,198.700851 242.945236,197.729965 
M215.029404,184.589127 
	C216.640701,185.359161 218.252014,186.129196 220.532654,187.219101 
	C220.532654,191.348801 220.532654,195.797913 220.532654,200.247040 
	C221.140381,200.283371 221.748123,200.319717 222.355850,200.356049 
	C222.619034,195.695312 222.882217,191.034592 223.139740,186.473923 
	C224.989746,186.050400 226.535782,185.696487 228.081802,185.342560 
	C228.021988,184.850327 227.962158,184.358109 227.902328,183.865875 
	C223.753098,183.865875 219.603851,183.865875 215.029404,184.589127 
M362.556793,204.139084 
	C363.326294,202.277695 364.095764,200.416306 365.053772,198.098907 
	C362.245667,198.098907 360.845337,198.098907 358.883514,198.098907 
	C359.882050,200.397202 356.816681,203.749954 362.556793,204.139084 
z"/>
<path fill="#0F75B7" opacity="1.000000" stroke="none" 
	d="
M61.216194,250.256653 
	C57.823772,255.028015 54.895077,259.717285 51.401806,263.939484 
	C42.166321,275.102112 43.576050,287.011047 48.105320,299.668457 
	C44.017033,302.032715 39.516064,303.907501 34.393288,301.338715 
	C29.654837,298.962677 28.681376,294.515198 28.875013,289.920410 
	C28.959986,287.904114 30.078671,285.135834 31.644875,284.113068 
	C39.019764,279.297028 43.229546,271.969635 48.023853,265.027069 
	C53.415947,257.218903 59.163677,249.654984 64.496216,241.807816 
	C66.016342,239.570847 67.137222,236.800339 67.569977,234.133148 
	C69.231422,223.893250 69.529991,214.058929 60.328259,206.326675 
	C58.501984,204.792068 57.776787,200.249390 58.531425,197.676910 
	C60.387981,191.348129 63.095501,185.207138 66.035400,179.275406 
	C68.978249,173.337753 73.756981,169.000366 79.708626,165.867767 
	C80.956490,165.210968 81.761223,163.093201 82.035721,161.520477 
	C82.140854,160.918137 80.190262,159.956955 79.093582,159.094101 
	C79.839500,156.938736 80.777008,154.506042 81.522911,152.015945 
	C82.997955,147.091705 85.965500,145.296844 90.420441,146.767868 
	C96.687057,148.837112 99.107811,152.377380 97.487007,157.168564 
	C97.014374,158.565689 95.886314,159.977005 96.023102,161.280609 
	C96.171196,162.691849 97.186188,164.856750 98.274246,165.181534 
	C103.569725,166.762207 106.888817,169.385452 107.408318,175.449997 
	C107.661957,178.410934 109.938095,181.165680 111.097076,184.093597 
	C111.869072,186.043884 112.822983,188.150436 112.766045,190.160736 
	C112.530396,198.480545 112.400345,198.476868 100.897133,200.532700 
	C101.226540,204.241821 101.797028,207.998505 101.847130,211.762100 
	C101.966393,220.721024 102.200905,229.702347 101.727432,238.639587 
	C101.020706,251.979538 99.653030,265.283112 98.749924,278.614563 
	C98.291740,285.378235 94.909912,292.691345 101.892899,298.382294 
	C102.256294,298.678436 101.782150,300.991516 101.267540,301.178040 
	C100.046356,301.620636 98.202644,301.899170 97.253853,301.271515 
	C93.097939,298.522247 88.830643,295.488739 88.276169,290.033844 
	C87.409927,281.511780 86.698090,272.951569 86.468315,264.392853 
	C86.165932,253.129333 86.394028,241.851578 86.394028,230.579956 
	C85.856476,230.507156 85.318916,230.434341 84.781364,230.361542 
	C84.499794,231.764328 84.235252,233.170776 83.933838,234.569290 
	C82.226685,242.490097 80.505692,250.407913 78.802834,258.329651 
	C78.526573,259.614807 78.142258,260.909424 78.105309,262.208130 
	C77.833817,271.751740 77.648651,281.297760 77.394112,290.841919 
	C77.377373,291.469543 77.208427,292.352264 76.779640,292.669708 
	C72.526787,295.818329 68.271858,298.977600 63.829945,301.843140 
	C63.146919,302.283752 61.287086,301.513855 60.422028,300.775787 
	C60.042381,300.451874 60.440956,298.263947 61.087841,297.839630 
	C66.206490,294.482056 66.077011,289.813324 65.901344,284.315582 
	C65.600266,274.893250 66.710922,265.434021 66.898460,255.983749 
	C66.972107,252.272934 66.157074,248.544510 65.680717,244.225372 
	C64.103355,246.350296 62.762962,248.155975 61.216194,250.256653 
M70.572609,194.207047 
	C69.174294,198.226868 64.686378,202.299316 70.879059,206.432358 
	C71.450050,202.624573 72.061501,199.044754 72.447418,195.440781 
	C72.505829,194.895279 71.514748,194.237381 70.572609,194.207047 
z"/>
<path fill="#0E75B7" opacity="1.000000" stroke="none" 
	d="
M178.964600,226.167206 
	C172.117203,224.135147 165.178757,222.364105 158.442230,220.014191 
	C146.157806,215.729004 141.004547,209.114334 141.107101,198.534943 
	C141.214996,187.406754 147.201340,179.192154 159.182526,175.656830 
	C173.516907,171.427109 187.548538,171.727936 199.706345,182.052322 
	C204.877075,186.443283 206.230988,192.565521 206.887039,199.300949 
	C201.156738,199.300949 195.869751,199.300949 190.570648,199.300949 
	C186.243759,188.124893 179.035934,184.417740 167.004242,187.198700 
	C161.753098,188.412430 158.267166,192.045105 158.111572,196.648392 
	C157.936188,201.837692 161.572433,203.931549 165.688583,205.276291 
	C170.422165,206.822754 175.347916,207.794357 180.049698,209.421570 
	C187.096710,211.860443 194.021286,214.653076 201.360657,216.877686 
	C201.723373,216.460129 201.964066,216.449020 201.589355,216.708405 
	C202.133224,217.996994 203.051788,219.026215 203.986923,220.030731 
	C204.003494,220.006012 203.949951,220.031815 204.072662,220.346680 
	C204.798096,220.798157 205.400803,220.934784 206.001068,221.036591 
	C205.998611,221.001770 205.929306,221.010178 205.875534,221.368195 
	C206.211853,221.841415 206.601944,221.956589 206.994370,222.037582 
	C206.996704,222.003403 206.928299,222.007767 206.829956,222.393951 
	C207.150726,222.877747 207.569855,222.975372 207.996811,223.035095 
	C208.004654,222.997208 207.929230,222.979858 207.607269,223.285980 
	C207.844742,224.580734 208.404190,225.569351 208.931946,226.555176 
	C208.900253,226.552383 208.837387,226.562271 208.837387,226.562271 
	C213.652969,242.362473 206.609970,255.446991 190.325485,259.672791 
	C190.334122,254.431656 190.231033,249.563644 191.297485,244.966965 
	C194.259048,232.201920 193.707123,230.876221 181.305450,226.792999 
	C180.539520,226.540817 179.745529,226.373825 178.964600,226.167206 
z"/>
<path fill="#2DA6DD" opacity="1.000000" stroke="none" 
	d="
M188.187317,261.048340 
	C189.377045,265.507812 189.991959,270.228394 191.874664,274.373077 
	C195.952682,283.350677 204.423309,287.792938 214.232422,286.925201 
	C223.255310,286.127014 228.680908,281.149902 231.606888,270.967102 
	C231.880005,270.016602 232.075058,269.043640 232.388412,267.739563 
	C238.077286,267.739563 243.759674,267.739563 249.460266,267.739563 
	C248.468918,285.377441 236.846710,298.311279 219.832626,301.089172 
	C188.021027,306.283112 166.743195,282.959351 170.679123,250.307159 
	C171.575943,242.867203 175.915009,235.842163 179.218201,228.362823 
	C180.863037,228.456802 181.973541,228.776077 183.053528,229.177444 
	C191.479813,232.308884 192.028198,234.070602 190.090714,242.959030 
	C188.807190,248.847321 188.778015,255.009033 188.187317,261.048340 
z"/>
<path fill="#1C7DBB" opacity="1.000000" stroke="none" 
	d="
M424.279083,255.326965 
	C413.612213,255.946976 409.361481,253.662155 406.909546,244.695984 
	C409.982666,246.399338 412.283447,247.110168 413.781738,248.618301 
	C417.296082,252.155746 421.598724,251.974609 425.379669,250.581268 
	C430.409882,248.727554 430.399811,243.871231 430.130432,239.128174 
	C421.560760,244.339951 414.396210,243.814255 409.478943,237.775131 
	C404.324921,231.445175 404.918671,219.588394 410.706146,213.270233 
	C415.492706,208.044754 422.655823,207.840698 429.179077,212.469864 
	C431.086456,211.414124 432.878387,210.422287 435.091980,209.197067 
	C435.091980,222.166718 435.506104,234.076111 434.908844,245.934570 
	C434.630432,251.462524 430.187469,254.424667 424.279083,255.326965 
M429.777985,230.661316 
	C429.808716,227.525192 430.361969,224.282028 429.746643,221.278259 
	C428.843872,216.871368 426.038177,214.026627 421.064178,213.900864 
	C416.227448,213.778595 413.677429,216.595230 412.433167,220.668854 
	C411.726410,222.982803 411.675476,225.589523 411.789612,228.042953 
	C412.046021,233.554916 414.928986,237.255737 419.138031,237.963165 
	C423.789734,238.744995 426.920746,236.769760 429.777985,230.661316 
z"/>
<path fill="#2FA7DE" opacity="1.000000" stroke="none" 
	d="
M209.282043,226.385010 
	C208.837387,226.562271 208.900253,226.552383 209.254486,226.228867 
	C209.048889,224.930176 208.489059,223.955017 207.929230,222.979858 
	C207.929230,222.979858 208.004654,222.997208 207.987671,222.724304 
	C207.623230,222.303528 207.275757,222.155640 206.928299,222.007767 
	C206.928299,222.007767 206.996704,222.003403 207.003082,221.712616 
	C206.649429,221.284607 206.289368,221.147385 205.929306,221.010162 
	C205.929306,221.010178 205.998611,221.001770 205.963379,220.602325 
	C205.268753,220.145859 204.609344,220.088837 203.949951,220.031815 
	C203.949951,220.031815 204.003494,220.006012 204.307495,219.744797 
	C203.729019,218.472061 202.846542,217.460541 201.964066,216.449020 
	C201.964066,216.449020 201.723373,216.460129 201.754105,216.479645 
	C201.110947,216.016983 200.430023,215.544098 199.770309,215.043259 
	C199.664413,214.962845 199.653305,214.757614 199.323898,213.872864 
	C208.746307,210.757339 217.973831,211.497925 227.607147,214.068207 
	C227.980133,214.005234 227.983368,213.937912 228.089310,214.274612 
	C232.632629,217.746033 237.325562,220.589752 241.385071,224.154755 
	C243.074661,225.638535 243.413864,228.660004 244.206329,231.239822 
	C243.708862,232.683533 243.372162,233.869705 243.017044,235.030670 
	C242.998611,235.005463 243.056870,235.027878 242.761383,235.033966 
	C242.316696,235.379822 242.167496,235.719589 242.009949,236.030396 
	C242.001587,236.001434 242.059464,236.018326 241.761230,236.038712 
	C241.316422,236.391678 241.169861,236.724243 241.012741,237.028824 
	C241.002182,237.000839 241.056839,237.025101 240.713821,237.003357 
	C240.254700,237.339111 240.138596,237.696594 240.010941,238.028015 
	C239.999374,238.001953 240.049667,238.028748 239.652130,237.857208 
	C235.486343,236.800461 231.718109,235.915268 227.975067,235.015335 
	C228.000259,235.000610 227.956055,235.039108 228.218155,234.787979 
	C227.796967,233.669357 227.113693,232.801849 226.244492,231.678497 
	C225.683044,231.280304 225.307510,231.137985 224.970337,230.992371 
	C225.008713,230.989044 225.019699,231.065292 224.916443,230.723175 
	C224.189011,230.264877 223.564819,230.148697 222.974030,230.027405 
	C223.007401,230.022293 223.006912,230.089844 223.006912,230.089844 
	C220.507889,229.042816 218.066055,227.811951 215.490494,227.011063 
	C213.662689,226.442703 211.654404,226.454773 209.282043,226.385010 
z"/>
<path fill="#1076B8" opacity="1.000000" stroke="none" 
	d="
M142.073486,247.826401 
	C140.363068,243.003448 138.817566,238.509201 137.042252,233.346619 
	C143.921967,233.346619 149.637115,233.346619 155.541504,233.346619 
	C156.375107,240.557785 159.444122,245.970947 166.867233,248.167175 
	C167.801132,248.443481 168.820404,250.250275 168.862320,251.382660 
	C168.990250,254.838593 168.659958,258.311493 168.491119,262.162506 
	C157.452499,261.465851 148.455948,257.477966 142.073486,247.826401 
z"/>
<path fill="#2280BD" opacity="1.000000" stroke="none" 
	d="
M330.900513,227.931076 
	C334.081696,232.769714 337.068024,237.295105 340.183868,242.016815 
	C335.783752,243.504242 333.151917,242.436066 331.094727,238.781296 
	C328.656281,234.449219 325.713074,230.401230 322.089935,224.854172 
	C320.338013,228.154663 318.470428,230.518402 317.840759,233.175491 
	C317.176025,235.980606 317.691711,239.065460 317.691711,242.338287 
	C315.792175,242.449280 314.369141,242.532410 312.544800,242.639008 
	C312.544800,227.730423 312.544800,213.149139 312.544800,198.019623 
	C313.822357,197.926559 315.372803,197.813629 317.578705,197.652954 
	C317.578705,206.208374 317.578705,214.396149 317.578705,222.828735 
	C325.616821,219.667191 328.022125,208.385834 339.253540,210.261078 
	C334.856903,214.350983 331.008179,217.931213 326.868042,221.782547 
	C328.185211,223.785385 329.445435,225.701614 330.900513,227.931076 
z"/>
<path fill="#177ABA" opacity="1.000000" stroke="none" 
	d="
M286.026337,238.654694 
	C285.651794,240.254913 284.826294,242.723114 284.478607,242.657547 
	C282.043884,242.198425 279.707855,241.215912 277.454224,240.440094 
	C273.498566,241.252625 269.137421,242.743317 264.732147,242.887726 
	C260.235168,243.035126 256.835632,240.484100 256.075500,235.582886 
	C255.305389,230.617569 257.551056,226.737503 262.544006,225.225098 
	C266.167236,224.127563 270.055695,223.918488 273.703156,222.881607 
	C275.197144,222.456909 277.312561,221.009491 277.455597,219.823517 
	C277.650574,218.206741 276.696808,215.815521 275.411133,214.778961 
	C271.983429,212.015442 264.931030,213.505539 263.375702,217.512726 
	C262.015350,221.017548 260.030701,220.377365 257.570587,219.837860 
	C258.218384,213.000366 260.958527,210.387817 268.457489,209.350403 
	C278.533386,207.956482 283.154083,211.947433 283.100006,222.019226 
	C283.078583,226.006714 282.758331,230.017029 283.107635,233.969788 
	C283.242615,235.497131 284.856445,236.893799 286.026337,238.654694 
M273.694519,237.440979 
	C278.109467,234.965332 278.329559,230.980057 277.620850,226.415619 
	C273.522858,227.197601 269.471405,227.828888 265.494843,228.775024 
	C262.386597,229.514587 260.829132,232.093002 261.983337,234.804443 
	C262.751007,236.607788 265.220581,238.191956 267.249451,238.796219 
	C268.928345,239.296280 271.077332,238.218109 273.694519,237.440979 
z"/>
<path fill="#35A9DF" opacity="1.000000" stroke="none" 
	d="
M325.868683,264.467102 
	C326.100006,269.495178 326.247589,274.135406 326.331299,278.776825 
	C326.385132,281.761902 324.885010,285.262451 329.146515,286.749664 
	C328.565735,288.108704 327.658966,290.693359 327.454224,290.638916 
	C325.177429,290.033264 323.009308,289.019379 320.848358,288.130707 
	C317.697083,289.082672 314.185425,290.615112 310.530151,291.132141 
	C305.605835,291.828644 301.760376,288.762054 300.997559,284.377441 
	C300.107574,279.261658 302.190704,275.508759 307.268921,273.999969 
	C310.433746,273.059631 313.903931,273.102570 317.017792,272.053406 
	C318.648193,271.504028 320.941681,269.502350 320.888123,268.243774 
	C320.821625,266.681061 318.883575,264.302277 317.317932,263.875580 
	C313.414337,262.811646 309.443329,262.702148 307.155212,267.493042 
	C306.585358,268.686157 304.297729,269.058868 301.922791,270.247528 
	C302.421631,263.933746 305.024658,261.010071 309.669617,259.676117 
	C316.395416,257.744598 322.115662,259.298370 325.868683,264.467102 
M319.689636,283.952087 
	C320.352142,281.213379 321.014679,278.474670 321.855957,274.997009 
	C316.895660,276.030396 313.036987,276.414734 309.544586,277.754181 
	C307.999573,278.346741 306.203857,280.957275 306.333923,282.498871 
	C306.465515,284.059174 308.826538,286.625916 310.227570,286.636841 
	C313.177795,286.659912 316.138855,285.299805 319.689636,283.952087 
z"/>
<path fill="#39ABDF" opacity="1.000000" stroke="none" 
	d="
M377.123138,276.684753 
	C374.859192,276.684570 373.075775,276.684570 371.135223,276.684570 
	C370.876068,281.767700 372.547180,285.163239 376.914246,286.539368 
	C381.213196,287.894104 385.004883,287.357727 387.631073,282.839081 
	C388.400208,281.515747 390.687744,281.074890 393.024414,279.833801 
	C391.427643,288.985321 385.824280,292.500793 376.898590,291.200439 
	C369.037170,290.055145 364.559235,282.385590 365.871216,272.313385 
	C367.039368,263.345367 373.441681,258.070770 381.965210,259.054138 
	C389.441559,259.916718 394.162109,266.923706 393.386200,276.684967 
	C388.169769,276.684967 382.886749,276.684967 377.123138,276.684753 
M387.204834,267.647827 
	C385.087524,263.765991 381.688293,262.281189 377.583282,263.378082 
	C373.562134,264.452545 371.321442,267.356415 371.172485,271.909241 
	C376.813690,271.909241 382.245026,271.909241 388.013306,271.909241 
	C387.848358,270.565247 387.713806,269.468933 387.204834,267.647827 
z"/>
<path fill="#39ABDF" opacity="1.000000" stroke="none" 
	d="
M288.501129,285.839905 
	C291.052521,283.751526 291.381134,278.759369 296.191071,281.144287 
	C294.908112,288.910461 289.420105,292.432983 280.452576,291.245087 
	C272.655792,290.212250 267.885864,282.324585 269.121094,272.507111 
	C270.232025,263.677155 276.760254,258.189178 285.138641,259.041840 
	C292.762634,259.817688 297.362640,266.471283 296.724121,276.482849 
	C289.427917,276.482849 282.060638,276.482849 274.835480,276.482849 
	C273.224915,284.433594 281.201233,289.473053 288.501129,285.839905 
M276.450409,266.211975 
	C275.782684,267.967133 275.114990,269.722321 274.280609,271.915588 
	C280.514954,271.915588 285.951141,271.915588 291.411194,271.915588 
	C290.382599,263.252014 284.049866,260.577423 276.450409,266.211975 
z"/>
<path fill="#1B7CBB" opacity="1.000000" stroke="none" 
	d="
M391.048889,214.664429 
	C382.237183,213.070114 378.346344,216.131409 378.110687,224.612823 
	C377.949707,230.406738 378.079895,236.208725 378.079895,242.333115 
	C376.276001,242.426315 374.859802,242.499496 373.074860,242.591721 
	C373.074860,231.710419 373.074860,221.134201 373.074860,209.342209 
	C375.233246,210.379684 376.997620,211.227768 379.568848,212.463669 
	C381.141174,211.811203 384.163055,209.875732 387.413025,209.349670 
	C394.299377,208.235016 398.874237,211.755569 399.340088,218.773987 
	C399.845398,226.386566 399.454681,234.058609 399.454681,242.253098 
	C397.987671,242.377121 396.439758,242.507996 394.106445,242.705276 
	C394.106445,235.694305 394.354523,229.091003 393.983032,222.522705 
	C393.836639,219.934235 392.307922,217.423935 391.048889,214.664429 
z"/>
<path fill="#1578B9" opacity="1.000000" stroke="none" 
	d="
M228.013336,214.011017 
	C228.714691,212.832611 229.271225,210.717102 230.069870,210.621384 
	C234.056473,210.143509 238.389313,209.212189 242.074417,210.270981 
	C249.281265,212.341583 252.907089,222.226273 250.722855,231.431976 
	C248.946106,238.920212 242.405472,244.048660 235.036377,243.098175 
	C232.074951,242.716187 229.284729,241.006958 226.022141,239.749802 
	C226.022141,244.562897 226.022141,249.599731 226.022141,254.813019 
	C224.057968,254.813019 222.613831,254.813019 220.544907,254.813019 
	C220.544907,246.978745 220.519653,239.216888 220.616180,231.456558 
	C220.621246,231.049942 221.661057,230.656204 222.613022,230.173157 
	C223.006912,230.089844 223.007401,230.022293 223.053558,230.407700 
	C223.739716,230.883835 224.379700,230.974564 225.019699,231.065292 
	C225.019699,231.065292 225.008713,230.989044 224.771484,231.250351 
	C224.670532,231.680710 224.806824,231.849747 225.079956,232.301666 
	C226.129868,233.402725 227.042969,234.220917 227.956055,235.039108 
	C227.956055,235.039108 228.000259,235.000610 228.003876,235.367157 
	C231.418106,239.665131 235.327164,240.981033 240.049667,238.028748 
	C240.049667,238.028748 239.999374,238.001953 240.344849,238.037567 
	C240.812500,237.723816 240.934677,237.374466 241.056839,237.025101 
	C241.056839,237.025101 241.002182,237.000839 241.378967,237.110718 
	C241.856995,236.819839 241.958221,236.419083 242.059448,236.018326 
	C242.059464,236.018326 242.001587,236.001434 242.374908,236.160034 
	C242.851089,235.888367 242.953964,235.458115 243.056854,235.027878 
	C243.056870,235.027878 242.998611,235.005463 243.351685,235.168671 
	C244.382904,233.875214 245.061066,232.418579 245.861664,230.537262 
	C246.149445,219.236542 242.819763,210.986603 230.432175,214.006241 
	C229.666931,214.192780 228.801956,213.970169 227.983368,213.937912 
	C227.983368,213.937912 227.980133,214.005234 228.013336,214.011017 
z"/>
<path fill="#35A9DF" opacity="1.000000" stroke="none" 
	d="
M431.469543,277.287872 
	C428.199524,276.412689 424.971008,276.211487 422.544586,274.712219 
	C420.418976,273.398834 417.883820,270.615265 417.903839,268.503601 
	C417.928772,265.875824 419.736023,262.273254 421.920898,260.837006 
	C429.551392,255.821136 440.391327,260.329102 441.301575,270.064606 
	C438.841980,268.476776 436.908447,267.738770 435.723389,266.358246 
	C433.189819,263.406830 427.470673,262.168701 424.479340,264.508667 
	C423.696869,265.120728 422.821533,266.688324 423.098877,267.355988 
	C423.664642,268.718140 424.763916,270.342041 426.037994,270.831909 
	C429.269897,272.074615 432.719147,272.752380 436.082062,273.653870 
	C440.030151,274.712280 442.647827,277.182739 442.740051,281.318481 
	C442.839691,285.789001 440.295441,288.694336 436.094421,290.224030 
	C426.857086,293.587524 418.328125,289.660126 417.145599,281.147919 
	C419.703552,280.303345 421.358032,280.314362 422.808411,283.444366 
	C424.697906,287.522095 432.680939,288.365326 435.977173,285.299042 
	C438.975983,282.509430 437.249176,279.195770 431.469543,277.287872 
z"/>
<path fill="#37ABDF" opacity="1.000000" stroke="none" 
	d="
M334.138397,266.216248 
	C334.138794,263.951172 334.138794,262.153778 334.138794,260.490845 
	C337.798096,258.608826 339.330017,259.819611 339.230194,263.656403 
	C340.909943,262.417175 342.153351,261.312469 343.562225,260.491852 
	C350.879211,256.229828 358.702454,260.118073 359.684479,268.463135 
	C359.781372,269.286560 359.803192,270.122589 359.804474,270.952881 
	C359.814117,277.100311 359.809692,283.247711 359.809692,289.949036 
	C358.143463,290.080780 356.623169,290.200958 354.445679,290.373108 
	C354.445679,283.927032 354.473846,277.989624 354.436035,272.052643 
	C354.409760,267.924561 354.351990,263.797943 348.611847,263.475037 
	C343.265442,263.174316 339.998993,265.895172 339.663849,271.834290 
	C339.328949,277.769501 339.590363,283.738373 339.590363,290.009979 
	C337.623596,290.009979 336.224182,290.009979 334.138000,290.009979 
	C334.138000,282.168365 334.138000,274.426147 334.138397,266.216248 
z"/>
<path fill="#2582BE" opacity="1.000000" stroke="none" 
	d="
M346.236206,242.502426 
	C345.560516,241.820160 345.070282,241.244766 345.068542,240.667892 
	C345.025940,226.541641 345.035217,212.415222 345.035217,198.001465 
	C346.895599,198.001465 348.477844,198.001465 350.692627,198.001465 
	C350.692627,205.718521 350.692749,213.311798 350.692596,220.905090 
	C350.692505,226.897964 350.537628,232.896423 350.753937,238.881470 
	C350.870392,242.103424 349.594086,243.100540 346.236206,242.502426 
z"/>
<path fill="#207FBC" opacity="1.000000" stroke="none" 
	d="
M291.104309,221.027679 
	C291.104370,217.233444 291.104370,213.934479 291.104370,210.423782 
	C294.492950,209.468796 296.991791,209.304993 296.554169,213.761185 
	C300.292725,211.932800 303.804840,210.215179 308.069031,208.129761 
	C308.205627,210.981522 308.281525,212.566483 308.354218,214.084137 
	C298.148163,217.016357 296.823944,218.788101 296.745850,229.436234 
	C296.715576,233.563965 296.740906,237.692093 296.740906,242.305862 
	C294.902954,242.423233 293.358154,242.521896 291.104279,242.665848 
	C291.104279,235.331085 291.104279,228.427017 291.104309,221.027679 
z"/>
<path fill="#2FA7DE" opacity="1.000000" stroke="none" 
	d="
M403.218567,260.287476 
	C403.715881,261.507416 403.883118,262.484406 404.013855,263.247986 
	C407.332153,261.642700 410.696503,260.015137 414.747070,258.055603 
	C414.747070,260.735413 414.747070,262.167725 414.747070,263.586639 
	C405.000702,266.723755 404.018005,268.075226 403.974152,278.422760 
	C403.958710,282.063507 403.971680,285.704407 403.971680,289.738007 
	C402.349304,289.895935 400.972382,290.029968 399.247864,290.197815 
	C399.247864,280.095642 399.247864,270.354980 399.247864,260.044495 
	C400.434662,260.044495 401.661621,260.044495 403.218567,260.287476 
z"/>
<path fill="#35A9DF" opacity="1.000000" stroke="none" 
	d="
M259.018188,290.023438 
	C258.306366,287.338806 257.852753,284.753021 257.833832,282.164032 
	C257.752594,271.053528 257.799194,259.942078 257.799194,248.437088 
	C259.556366,248.353485 260.932159,248.288010 262.143158,248.230392 
	C262.489532,248.880051 262.772736,249.164093 262.774200,249.449585 
	C262.837646,261.913513 262.820740,274.378204 262.962067,286.841095 
	C262.992126,289.492859 262.046509,290.521057 259.018188,290.023438 
z"/>
<path fill="#1076B8" opacity="1.000000" stroke="none" 
	d="
M359.025482,212.333527 
	C360.570160,211.082901 362.110138,210.296021 364.291016,209.181671 
	C364.291016,220.919891 364.291016,231.350266 364.291016,242.271805 
	C362.618774,242.358398 361.083740,242.437897 359.020782,242.544724 
	C359.020782,232.334610 359.020782,222.565948 359.025482,212.333527 
z"/>
<path fill="#51B5E3" opacity="1.000000" stroke="none" 
	d="
M254.637665,200.497025 
	C253.545517,200.499344 252.867004,200.408432 252.221237,200.515289 
	C247.498199,201.296860 245.576080,199.504105 246.124390,194.602722 
	C246.505539,191.195572 246.197769,187.711349 246.197769,184.132843 
	C250.401855,184.132843 254.103745,184.132843 257.805634,184.132843 
	C257.826355,184.607849 257.847046,185.082855 257.867767,185.557846 
	C255.080719,185.785019 252.293671,186.012192 249.115952,186.271194 
	C248.208710,193.606903 255.984482,188.168121 257.469635,192.643478 
	C254.754837,192.826492 252.269211,192.994064 249.310684,193.193512 
	C249.164307,194.506470 249.010284,195.887985 248.805954,197.720886 
	C252.004013,197.937897 254.868820,198.132294 257.733612,198.326691 
	C257.817932,198.736923 257.902252,199.147156 257.986572,199.557373 
	C257.013214,199.870041 256.039825,200.182693 254.637665,200.497025 
z"/>
<path fill="#39ABDF" opacity="1.000000" stroke="none" 
	d="
M242.941956,198.129349 
	C242.174011,198.700851 241.409348,198.872971 240.644684,199.045105 
	C240.542496,197.228241 240.440308,195.411362 240.312927,193.146576 
	C237.656143,193.146576 235.135727,193.146576 232.295593,193.146576 
	C232.114136,195.474640 231.932205,197.808868 231.750275,200.143097 
	C231.341415,200.125458 230.932571,200.107803 230.523712,200.090149 
	C230.523712,194.707306 230.523712,189.324463 230.523712,183.941620 
	C230.890167,183.888199 231.256622,183.834763 231.623077,183.781342 
	C231.871841,185.891220 232.120605,188.001099 232.361877,190.047363 
	C238.000946,191.021942 238.000946,191.021942 242.945236,183.785538 
	C242.945236,188.433685 242.945236,193.081818 242.941956,198.129349 
z"/>
<path fill="#57B8E4" opacity="1.000000" stroke="none" 
	d="
M215.242004,184.227509 
	C219.603851,183.865875 223.753098,183.865875 227.902328,183.865875 
	C227.962158,184.358109 228.021988,184.850327 228.081802,185.342560 
	C226.535782,185.696487 224.989746,186.050400 223.139740,186.473923 
	C222.882217,191.034592 222.619034,195.695312 222.355850,200.356049 
	C221.748123,200.319717 221.140381,200.283371 220.532654,200.247040 
	C220.532654,195.797913 220.532654,191.348801 220.532654,187.219101 
	C218.252014,186.129196 216.640701,185.359161 215.242004,184.227509 
z"/>
<path fill="#D4EAF5" opacity="1.000000" stroke="none" 
	d="
M188.452423,261.014221 
	C188.778015,255.009033 188.807190,248.847321 190.090714,242.959030 
	C192.028198,234.070602 191.479813,232.308884 183.053528,229.177444 
	C181.973541,228.776077 180.863037,228.456802 179.397339,228.075317 
	C179.017395,227.632370 179.006821,227.213577 178.980408,226.481003 
	C179.745529,226.373825 180.539520,226.540817 181.305450,226.792999 
	C193.707123,230.876221 194.259048,232.201920 191.297485,244.966965 
	C190.231033,249.563644 190.334122,254.431656 189.935028,259.644104 
	C189.550217,260.401642 189.133865,260.690887 188.452423,261.014221 
z"/>
<path fill="#0E75B7" opacity="1.000000" stroke="none" 
	d="
M362.088806,204.148697 
	C356.816681,203.749954 359.882050,200.397202 358.883514,198.098907 
	C360.845337,198.098907 362.245667,198.098907 365.053772,198.098907 
	C364.095764,200.416306 363.326294,202.277695 362.088806,204.148697 
z"/>
<path fill="#D4EAF5" opacity="1.000000" stroke="none" 
	d="
M70.790863,193.919250 
	C71.514748,194.237381 72.505829,194.895279 72.447418,195.440781 
	C72.061501,199.044754 71.450050,202.624573 70.879059,206.432358 
	C64.686378,202.299316 69.174294,198.226868 70.790863,193.919250 
z"/>
<path fill="#FFFFFF" opacity="1.000000" stroke="none" 
	d="
M201.589355,216.708405 
	C202.846542,217.460541 203.729019,218.472061 204.290924,219.769501 
	C203.051788,219.026215 202.133224,217.996994 201.589355,216.708405 
z"/>
<path fill="#FFFFFF" opacity="1.000000" stroke="none" 
	d="
M207.607269,223.285980 
	C208.489059,223.955017 209.048889,224.930176 209.286179,226.231659 
	C208.404190,225.569351 207.844742,224.580734 207.607269,223.285980 
z"/>
<path fill="#FFFFFF" opacity="1.000000" stroke="none" 
	d="
M204.072662,220.346680 
	C204.609344,220.088837 205.268753,220.145859 205.965836,220.637146 
	C205.400803,220.934784 204.798096,220.798157 204.072662,220.346680 
z"/>
<path fill="#FFFFFF" opacity="1.000000" stroke="none" 
	d="
M206.829956,222.393951 
	C207.275757,222.155640 207.623230,222.303528 207.979828,222.762192 
	C207.569855,222.975372 207.150726,222.877747 206.829956,222.393951 
z"/>
<path fill="#FFFFFF" opacity="1.000000" stroke="none" 
	d="
M205.875534,221.368195 
	C206.289368,221.147385 206.649429,221.284607 207.000763,221.746796 
	C206.601944,221.956589 206.211853,221.841415 205.875534,221.368195 
z"/>
<path fill="#FCFDFE" opacity="1.000000" stroke="none" 
	d="
M429.629150,231.049942 
	C426.920746,236.769760 423.789734,238.744995 419.138031,237.963165 
	C414.928986,237.255737 412.046021,233.554916 411.789612,228.042953 
	C411.675476,225.589523 411.726410,222.982803 412.433167,220.668854 
	C413.677429,216.595230 416.227448,213.778595 421.064178,213.900864 
	C426.038177,214.026627 428.843872,216.871368 429.746643,221.278259 
	C430.361969,224.282028 429.808716,227.525192 429.629150,231.049942 
z"/>
<path fill="#EFF7FB" opacity="1.000000" stroke="none" 
	d="
M228.089310,214.274612 
	C228.801956,213.970169 229.666931,214.192780 230.432175,214.006241 
	C242.819763,210.986603 246.149445,219.236542 245.518433,230.528275 
	C244.824219,230.956711 244.595673,230.969482 244.367126,230.982269 
	C243.413864,228.660004 243.074661,225.638535 241.385071,224.154755 
	C237.325562,220.589752 232.632629,217.746033 228.089310,214.274612 
z"/>
<path fill="#D4EAF5" opacity="1.000000" stroke="none" 
	d="
M239.652130,237.857208 
	C235.327164,240.981033 231.418106,239.665131 227.978699,235.381897 
	C231.718109,235.915268 235.486343,236.800461 239.652130,237.857208 
z"/>
<path fill="#D4EAF5" opacity="1.000000" stroke="none" 
	d="
M244.206329,231.239822 
	C244.595673,230.969482 244.824219,230.956711 245.395996,230.952942 
	C245.061066,232.418579 244.382904,233.875214 243.370117,235.193863 
	C243.372162,233.869705 243.708862,232.683533 244.206329,231.239822 
z"/>
<path fill="#D4EAF5" opacity="1.000000" stroke="none" 
	d="
M228.218155,234.787979 
	C227.042969,234.220917 226.129868,233.402725 225.451096,232.268555 
	C225.933746,231.946503 226.182068,231.940430 226.430405,231.934357 
	C227.113693,232.801849 227.796967,233.669357 228.218155,234.787979 
z"/>
<path fill="#FFFFFF" opacity="1.000000" stroke="none" 
	d="
M224.916443,230.723175 
	C224.379700,230.974564 223.739716,230.883835 223.020172,230.412811 
	C223.564819,230.148697 224.189011,230.264877 224.916443,230.723175 
z"/>
<path fill="#D4EAF5" opacity="1.000000" stroke="none" 
	d="
M242.761383,235.033966 
	C242.953964,235.458115 242.851089,235.888367 242.383255,236.188995 
	C242.167496,235.719589 242.316696,235.379822 242.761383,235.033966 
z"/>
<path fill="#D4EAF5" opacity="1.000000" stroke="none" 
	d="
M241.761230,236.038712 
	C241.958221,236.419083 241.856995,236.819839 241.389526,237.138702 
	C241.169861,236.724243 241.316422,236.391678 241.761230,236.038712 
z"/>
<path fill="#D4EAF5" opacity="1.000000" stroke="none" 
	d="
M240.713821,237.003357 
	C240.934677,237.374466 240.812500,237.723816 240.356415,238.063629 
	C240.138596,237.696594 240.254700,237.339111 240.713821,237.003357 
z"/>
<path fill="#FFFFFF" opacity="1.000000" stroke="none" 
	d="
M226.244492,231.678497 
	C226.182068,231.940430 225.933746,231.946503 225.314270,231.985687 
	C224.806824,231.849747 224.670532,231.680710 224.733124,231.253662 
	C225.307510,231.137985 225.683044,231.280304 226.244492,231.678497 
z"/>
<path fill="#F8FCFE" opacity="1.000000" stroke="none" 
	d="
M273.356262,237.640091 
	C271.077332,238.218109 268.928345,239.296280 267.249451,238.796219 
	C265.220581,238.191956 262.751007,236.607788 261.983337,234.804443 
	C260.829132,232.093002 262.386597,229.514587 265.494843,228.775024 
	C269.471405,227.828888 273.522858,227.197601 277.620850,226.415619 
	C278.329559,230.980057 278.109467,234.965332 273.356262,237.640091 
z"/>
<path fill="#F8FCFE" opacity="1.000000" stroke="none" 
	d="
M319.392548,284.229736 
	C316.138855,285.299805 313.177795,286.659912 310.227570,286.636841 
	C308.826538,286.625916 306.465515,284.059174 306.333923,282.498871 
	C306.203857,280.957275 307.999573,278.346741 309.544586,277.754181 
	C313.036987,276.414734 316.895660,276.030396 321.855957,274.997009 
	C321.014679,278.474670 320.352142,281.213379 319.392548,284.229736 
z"/>
<path fill="#F8FCFE" opacity="1.000000" stroke="none" 
	d="
M387.392029,268.010223 
	C387.713806,269.468933 387.848358,270.565247 388.013306,271.909241 
	C382.245026,271.909241 376.813690,271.909241 371.172485,271.909241 
	C371.321442,267.356415 373.562134,264.452545 377.583282,263.378082 
	C381.688293,262.281189 385.087524,263.765991 387.392029,268.010223 
z"/>
<path fill="#F8FCFE" opacity="1.000000" stroke="none" 
	d="
M276.730255,265.927399 
	C284.049866,260.577423 290.382599,263.252014 291.411194,271.915588 
	C285.951141,271.915588 280.514954,271.915588 274.280609,271.915588 
	C275.114990,269.722321 275.782684,267.967133 276.730255,265.927399 
z"/>
</svg>